<svg xmlns="http://www.w3.org/2000/svg" xmlns:xlink="http://www.w3.org/1999/xlink" xmlns:svgjs="http://svgjs.com/svgjs" id="girl" data-ds-id="ds-17" height="807.8" width="513.2623788957312" version="1.1"><path data-ds-id="ds-18" id="Vector_15" d="M491.5 777.9C491.5 777.9 476.7 759.2 464.9 741.6C456.7 729.4 449.8 713.9 448.6 695.7C448 687.5 447.7 677.9 447.5 669.4C447.5 668.9 437.6 664.7 437.6 664.2L337.1 669.3C340.9 720.7 353.3 762.6 361.9 786.4L501 795C498.5 790.8 491.5 777.9 491.5 777.9Z " fill="#db9889ff" opacity="1" stroke="none"></path><path data-ds-id="ds-19" id="Vector_16" d="M430.9 786.4L507.7 786.8C507.8 786.8 507.9 786.5 507.8 786.4C505.3 782.3 501.6 777.9 496.5 774.1C491.3 770.2 476.6 759.1 464.9 741.7C464.9 741.7 464.8 741.6 464.8 741.7C446.6 749.3 433.3 766.1 430.9 786.4C430.9 786.4 430.8 786.3 430.9 786.4Z " fill="#4d90edff" opacity="1" stroke="none"></path><path data-ds-id="ds-20" id="Vector_17" d="M407.1 462.4C370.5 438.4 227.4 406.6 227.4 406.6H116.3L107.3 461.7C99.3 510.9 137.4 555.4 187.4 555.4L325.8 555.5C317 596 334.7 634.9 337.2 669.3L447.5 669.4C445.7 586.5 457.3 495.3 407.1 462.4Z " fill="#1c4c45ff" opacity="1" stroke="none"></path><path data-ds-id="ds-22" id="Vector_19" opacity="0.2" d="M410.5 714.9C410.5 658.9 437 592.7 430.8 549.3L386.2 576.3C357.1 641.8 379.2 747.6 388.8 786.4H442C430 774.4 410.5 739.4 410.5 714.9Z " fill="#121212ff" stroke="none"></path><path data-ds-id="ds-23" id="Vector_20" d="M507.8 786.4H470.6H388.8H362C361.9 786.4 361.9 786.5 361.9 786.5C366.5 799.5 370.1 807 370.4 807.7C370.4 807.7 370.4 807.8 370.5 807.8H513C513.1 807.8 513.1 807.8 513.1 807.7C513.3 806.7 514.2 797 507.8 786.4Z " fill="#141415ff" opacity="1" stroke="none"></path><path data-ds-id="ds-24" id="Vector_21" d="M423.7 771.1C413.4 763.3 408.7 754.3 403.4 747.3C393.9 734.7 391.7 722.6 393.7 709.4C394.5 704.3 397.2 694.6 400.8 682.7C402.1 678.5 403.6 673.9 405 669.2L351.6 665.6L301 669.1C300.5 674.5 300 680 299.6 685.4C299.6 685.4 298.6 722.7 300.5 742.4C301.9 756.8 307.6 767.6 311.1 782.5L349.4 786.4L378.7 797.7L434.8 797.1C434.3 789.2 436.3 783.2 423.7 771.1Z " fill="#db9889ff" opacity="1" stroke="none"></path><path data-ds-id="ds-25" id="Vector_22" d="M427.7 600.2C432.1 585.9 438 564.7 440.1 556.4C447.7 525 461.5 466.9 390.5 439.6C321.2 414.4 238.7 406.3 238.7 406.3L170.5 401.6L107.4 406.3C92.1 452.1 61.9 555.4 159.8 555.4C169.3 555.4 178.5 555.4 187.4 555.4C270.2 555.4 325.8 555.5 325.8 555.5C325.8 555.5 322.4 564.4 318.1 579.8C316.4 585.7 314.6 592.5 312.7 600.2C307.1 622.9 303.2 645.9 301 669.1L405 669.2C412 647.8 420.8 621.9 427.7 600.2Z " fill="#1c4c45ff" opacity="1" stroke="none"></path><path data-ds-id="ds-26" id="Vector_23" d="M442 786.5C442.1 786.5 442.2 786.4 442.1 786.3C438 779.7 432.5 773.7 426.3 769.1C416.1 761.4 408.7 754.2 403.5 747.4H403.4C390.2 755.9 381.1 770.5 378.8 786.8C378.8 787 378.9 787.2 379.1 787.2L412.4 791.2L442 786.5Z " fill="#4d90edff" opacity="1" stroke="none"></path><path data-ds-id="ds-27" id="Vector_24" d="M307.8 786.4H349.3C349.4 786.4 349.4 786.3 349.4 786.3C344.8 762.8 324.9 744.7 300.6 742.4C300.5 742.4 300.5 742.4 300.5 742.5C301.9 756.9 304.2 771.5 307.8 786.4C307.7 786.4 307.7 786.4 307.8 786.4Z " fill="#4d90edff" opacity="1" stroke="none"></path><path data-ds-id="ds-28" id="Vector_25" opacity="0.2" d="M318.3 579.7L359.7 555.7C359.8 555.6 359.8 555.5 359.6 555.5H325.8C325.8 555.5 325.7 555.5 325.7 555.6C325.3 556.6 322.4 564.6 318 579.6C318.1 579.6 318.2 579.7 318.3 579.7Z " fill="#121212ff" stroke="none"></path><path data-ds-id="ds-29" id="Vector_26" d="M448.8 805.8C448.6 802.9 447.7 795.7 442.2 786.3C438.1 779.6 432.6 773.7 426.3 769C397.3 747.1 390.6 729.8 393.7 709.3C394.5 704.2 397.2 694.5 400.8 682.6C402.1 678.4 403.6 673.8 405 669.1C411.9 647.6 420.6 621.8 427.5 600.2C431.9 585.9 437.8 564.7 439.9 556.4C441.3 550.9 442.8 544.5 443.9 537.7 " stroke="#121212ff" stroke-width="4" stroke-miterlimit="2.2405" stroke-linecap="round" stroke-linejoin="round" opacity="1" fill="none"></path><path data-ds-id="ds-30" id="Vector_27" d="M359.7 555.7L325.8 555.5 " stroke="#121212ff" stroke-width="4" stroke-miterlimit="2.2405" stroke-linecap="round" stroke-linejoin="round" opacity="1" fill="none"></path><path data-ds-id="ds-31" id="Vector_28" d="M134.6 108.5C132.2 125.4 129.9 205.8 129.9 205.8L196.4 204.2L200.4 194.3V188.8C208.1 192.5 228.6 195.3 237.9 185.2C247.1 175.3 246.3 164 244.6 152.9C244.5 152.5 244.7 152 245.1 151.8C247.2 150.5 253.9 146 253.8 142C253.7 138.4 246.6 135.4 244.8 134.7C244.6 134.6 244.4 134.4 244.4 134.1C244.5 125 244.4 115.7 243.5 107.7C242.9 101.9 241.8 96.8 240 92.8C232 75.8 215.8 68.3 188.7 65.5C157.6 62.1 136.3 93.7 134.6 108.5Z " fill="#db9889ff" opacity="1" stroke="none"></path><path data-ds-id="ds-32" id="Vector_29" d="M467.5 261.2C472.9 254.8 466.3 251.1 465.7 250.7V250.6C470.1 239.7 458.9 240.1 458 240.2C458 240.2 457.9 240.2 457.9 240.1C456 230.1 423.3 242.1 420.9 243C420.8 243 420.8 243 420.8 242.9C421 241.6 422.3 232.6 417.9 232.6C413.1 232.6 400.8 241.2 381.7 257.4C373 264.9 342.1 293.8 341 294.8C341 294.8 341 294.8 341 294.9L341.1 300.8L384.1 338.8L388.8 339.3C388.8 339.3 388.9 339.3 388.9 339.2L394.6 326.7C394.8 326.3 395.1 326.1 395.5 326C418.3 322.4 424.6 300.6 439.6 295.1C454.9 289.4 467.3 284.7 467.3 278.9C467.3 274.2 449.6 276.1 442.8 277C442.4 277.1 442.2 276.5 442.6 276.3C448.2 273.7 463 266.5 467.5 261.2Z " fill="#db9889ff" opacity="1" stroke="none"></path><path data-ds-id="ds-33" id="Vector_30" d="M172.2 138.8L178.9 143.7 " stroke="#905d51ff" stroke-width="4" stroke-miterlimit="2.2405" stroke-linecap="round" stroke-linejoin="round" opacity="1" fill="none"></path><path data-ds-id="ds-34" id="Vector_31" d="M221.8 150.9C223.1 153.4 225.7 154.9 228.5 154.7 " stroke="#905d51ff" stroke-width="4" stroke-miterlimit="2.2405" stroke-linecap="round" stroke-linejoin="round" opacity="1" fill="none"></path><path data-ds-id="ds-35" id="Vector_32" d="M200.4 188.8C196.7 186.5 192.8 184 189.5 181.7 " stroke="#905d51ff" stroke-width="4" stroke-miterlimit="2.2405" stroke-linecap="round" stroke-linejoin="round" opacity="1" fill="none"></path><path data-ds-id="ds-36" id="Vector_33" opacity="0.25" d="M200.4 204.2V188.8C197.5 187.5 193.9 184.7 189.5 181.7C189.1 181.4 188.6 181.9 188.8 182.3L200.4 204.2Z " fill="#905d51ff" stroke="none"></path><path data-ds-id="ds-37" id="Vector_34" d="M410.8 247.4L420.7 243.1 " stroke="#905d51ff" stroke-width="4" stroke-miterlimit="2.2405" stroke-linecap="round" stroke-linejoin="round" opacity="1" fill="none"></path><path data-ds-id="ds-38" id="Vector_35" d="M457.9 240.2C436.9 245.9 422.2 251.2 422.2 251.2 " stroke="#905d51ff" stroke-width="4" stroke-miterlimit="2.2405" stroke-linecap="round" stroke-linejoin="round" opacity="1" fill="none"></path><path data-ds-id="ds-39" id="Vector_36" d="M465.6 250.7C449.4 254.5 430.7 261.6 430.7 261.6 " stroke="#905d51ff" stroke-width="4" stroke-miterlimit="2.2405" stroke-linecap="round" stroke-linejoin="round" opacity="1" fill="none"></path><path data-ds-id="ds-40" id="Vector_37" d="M226.7 133.7C228.35 133.7 229.7 132.36 229.7 130.7C229.7 129.05 228.35 127.7 226.7 127.7C225.04 127.7 223.7 129.05 223.7 130.7C223.7 132.36 225.04 133.7 226.7 133.7Z " fill="#0b0c0cff" opacity="1" stroke="none"></path><path data-ds-id="ds-41" id="Vector_38" d="M309.3 325C307.8 321.7 278.6 254.1 262.2 232.5C243.6 208.1 204.6 206.8 200.8 206.7C200.6 206.7 200.5 206.6 200.5 206.4V194.3H129.2L129.7 211C129.7 211 82.9 238.4 93.9 312.4C104.1 381.4 107.5 406.3 107.5 406.3H238.8L242.6 370.2C242.6 370.1 242.8 370.1 242.8 370.2C245 374.8 270.4 426.1 310.7 423.8C340.4 422 357.9 394.2 373.3 367.1L348.5 333.1L318.6 316.3C313.2 321.2 309.9 324.4 309.3 325Z " fill="#4d90edff" opacity="1" stroke="none"></path><path data-ds-id="ds-42" id="Vector_39" opacity="0.25" d="M238.7 406.3L242.5 369.8L216.3 320.7C216 320.1 215.1 320.3 215.1 321L212.5 406.4L238.7 406.3Z " fill="#0c0c0dff" stroke="none"></path><path data-ds-id="ds-43" id="Vector_40" d="M341 294.9C336.1 299.4 331.5 303.9 327.4 307.9C324 311.1 321.3 313.8 318.6 316.3L373.3 367.1C380 356.6 385 347 388.8 339.5V339.4L341 294.9Z " fill="#1c4c45ff" opacity="1" stroke="none"></path><path data-ds-id="ds-44" id="Vector_41" d="M309.3 325L314.2 336.3 " stroke="#0c0c0dff" stroke-width="4" stroke-miterlimit="2.2405" stroke-linecap="round" stroke-linejoin="round" opacity="1" fill="none"></path><path data-ds-id="ds-45" id="Vector_42" d="M242.5 369.8C230.1 347.8 216.3 320.7 216.3 320.7 " stroke="#0c0c0dff" stroke-width="4" stroke-miterlimit="2.2405" stroke-linecap="round" stroke-linejoin="round" opacity="1" fill="none"></path><path data-ds-id="ds-46" id="Vector_43" d="M210.1 207.5C207.9 207 200.7 206.7 200.7 206.7 " stroke="#0c0c0dff" stroke-width="4" stroke-miterlimit="2.2405" stroke-linecap="round" stroke-linejoin="round" opacity="1" fill="none"></path><path data-ds-id="ds-47" id="Vector_44" opacity="0.25" d="M326.9 308.2C321.3 313.5 310 324.3 309.2 325.1V325.2L314.2 336.3C314.2 336.4 314.3 336.4 314.4 336.3L327.1 308.3C327.1 308.2 327 308.1 326.9 308.2Z " fill="#0c0c0dff" stroke="none"></path><path data-ds-id="ds-48" id="Vector_45" d="M240 92.2C232 75.2 215.7 64.8 188.6 61.9C157.5 58.6 132.7 78.1 129 108.5C128 115.3 127.8 132.2 128 150C128 150.5 127.6 151 127 150.9C118.6 150.3 59.4 148.4 57.8 209.7C57.8 210.2 57.4 210.7 56.9 210.8C50.9 211.7 17.2 218.3 4.6 255.2C3 260 1.8 264.7 1.1 269.2C-1.7 286.2 1.3 301.6 7.8 314.1C17.8 333.4 36.1 346 54.1 347.7C54.2 347.7 54.2 347.7 54.3 347.7C120.6 353.7 124.8 283.8 124.9 281.4C124.9 281.4 124.9 281.3 125 281.3C156.6 273 171.3 255.6 177.2 236.8C185.8 209.3 175.7 178.9 172 169.2C171.3 167.3 170.2 165.6 168.8 164.2C163.3 158.4 148.2 140.6 158.4 125.9C171 107.9 194.8 129.8 195.7 130.7C195.7 130.7 195.7 130.7 195.8 130.7C196.3 130.5 200.7 128.7 202.3 114.8C202.3 114.7 202.4 114.7 202.5 114.7C219.2 123 219 107.3 219 105.6C219 105.5 219.1 105.5 219.1 105.5C232 113.5 242.8 108 243.5 107.6C243.5 107.6 243.5 107.6 243.5 107.5C243.2 101.7 241.9 96.2 240 92.2Z " fill="#7e1b30ff" opacity="1" stroke="none"></path><path data-ds-id="ds-49" id="Vector_46" opacity="0.25" d="M105.6 255.2C104.2 257.3 66.5 316.4 11.4 278.7C7.8 276.1 4.1 272.9 1.2 269.3C1.1 269.2 1 269.3 1 269.3C-1.7 286.3 1.2 301.5 7.8 314C17.9 333.2 36.3 345.9 54.3 347.6C80.2 350 96.6 340.8 107 328.5C123.3 309.3 124.9 282.7 124.9 281.3C124.9 281.3 124.9 281.2 125 281.2C156.1 273 171 256.1 177 237.1C177 237 176.9 236.9 176.8 237C162.5 253.3 140.4 264.1 105.6 255.2Z " fill="#0d0d0dff" stroke="none"></path><path data-ds-id="ds-50" id="Vector_47" d="M127.9 137.6V150.3 " stroke="#0d0d0dff" stroke-width="4" stroke-miterlimit="2.2405" stroke-linecap="round" stroke-linejoin="round" opacity="1" fill="none"></path><path data-ds-id="ds-51" id="Vector_48" d="M140.5 275.9C133.9 278.6 129.5 280 124.9 281.4 " stroke="#0c0c0dff" stroke-width="4" stroke-miterlimit="2.2405" stroke-linecap="round" stroke-linejoin="round" opacity="1" fill="none"></path><path data-ds-id="ds-52" id="Vector_49" d="M137.5 449.9H187.7C188.6 449.9 189.4 450.7 189.2 451.7C187.8 459.9 180.6 494 155 494C128.8 494 134.6 458.2 136 451.1C136.2 450.4 136.8 449.9 137.5 449.9Z " fill="#0a0b0bff" opacity="1" stroke="none"></path><path data-ds-id="ds-53" id="Vector_50" d="M107.3 406.5H238.6 " stroke="#0c0c0dff" stroke-width="4" stroke-miterlimit="2.2405" stroke-linecap="round" stroke-linejoin="round" opacity="1" fill="none"></path><path data-ds-id="ds-54" id="Vector_51" d="M128.4 82.8C151.26 82.8 169.8 64.26 169.8 41.4C169.8 18.54 151.26 0 128.4 0C105.53 0 87 18.54 87 41.4C87 64.26 105.53 82.8 128.4 82.8Z " fill="#7e1b30ff" opacity="1" stroke="none"></path><path data-ds-id="ds-55" id="Vector_52" d="M307.7 786.5C309.4 793.5 311.3 800.7 313.4 807.7L313.5 807.8H448.6C448.7 807.8 448.7 807.8 448.7 807.7C448.7 806.7 448.6 797.5 442.1 786.4L442 786.3H307.8C307.8 786.4 307.7 786.5 307.7 786.5Z " fill="#141415ff" opacity="1" stroke="none"></path><path data-ds-id="ds-56" id="Vector_53" d="M162.1 65.4C156.9 72.7 149.4 78.2 140.7 80.9 " stroke="#0d0d0dff" stroke-width="4" stroke-miterlimit="2.2405" stroke-linecap="round" stroke-linejoin="round" opacity="1" fill="none"></path></svg>