<svg xmlns="http://www.w3.org/2000/svg" xmlns:xlink="http://www.w3.org/1999/xlink" xmlns:svgjs="http://svgjs.com/svgjs" id="Cat" data-ds-id="ds-103" height="125.00000000000004" width="76.00000000000007" version="1.1"><path data-ds-id="ds-105" d="M34.3 10.12L32.2 0.82C32 -0.18 30.8 -0.28 29.9 0.62L22 8.62 " fill="#000000ff" opacity="1" stroke="none"></path><path data-ds-id="ds-106" d="M34.3 10.12L32.2 0.82C32 -0.18 30.8 -0.28 29.9 0.62L22 8.62 " stroke="#000000ff" stroke-width="1.5" stroke-miterlimit="10" stroke-linecap="round" stroke-linejoin="round" opacity="1" fill="none"></path><path data-ds-id="ds-107" id="Vector_90" d="M65.4 105.02H65.1C64.9 101.12 64.6 95.72 64.1 87.92C62.2 58.72 40.5 39.62 40.5 39.62C43.9 36.22 46 31.42 46 26.22C46 22.52 45 19.12 43.1 16.22L44.7 3.62C44.6 2.12 43.1 1.22 42 2.02L34.2 8.72C31.4 7.62 28.2 7.02 25 7.42C16 8.32 8.8 15.72 8 24.82C7.3 32.82 11.7 39.92 18.2 43.32C18.2 43.32 10.3 48.62 10.3 61.42C10.3 64.22 10.6 67.22 11 70.42L11.7 73.32V84.22C11.7 89.72 10.6 95.22 8.6 100.32L1.7 115.12C0.3 118.02 2 121.52 5.2 122.22C7.4 122.72 9.7 121.72 10.8 119.72L11.6 118.42C12 120.82 14 122.72 16.6 122.72H21.8H33.1H33.3H51.8C51.8 122.72 53.7 123.92 54.9 123.92H64.9C64.9 123.92 75.7 124.62 75.7 115.42C75.6 104.92 65.4 105.02 65.4 105.02Z " fill="#e86b07ff" opacity="1" stroke="none"></path><path data-ds-id="ds-108" id="Vector_91" d="M70.6 114.52H54.9C52.3 114.52 50.2 116.62 50.2 119.22 " stroke="#000000ff" stroke-width="1.5" stroke-miterlimit="10" stroke-linecap="round" stroke-linejoin="round" opacity="1" fill="none"></path><path data-ds-id="ds-109" id="Vector_92" d="M30.1 119.32C30.1 117.42 31.6 115.92 33.5 115.92H38.9C38.9 115.92 38.9 115.92 30.6 101.92C22.3 87.92 34.8 73.52 34.8 73.52 " stroke="#000000ff" stroke-width="1.5" stroke-miterlimit="10" stroke-linecap="round" stroke-linejoin="round" opacity="1" fill="none"></path><path data-ds-id="ds-110" id="Vector_93" d="M23.2 45.02C23.2 45.02 16.3 45.22 12.9 49.62L17.8 43.62C17.8 43.52 22.7 44.92 23.2 45.02Z " fill="#000000ff" stroke="#000000ff" stroke-width="1.5" stroke-miterlimit="10" stroke-linecap="round" stroke-linejoin="round" opacity="1"></path><path data-ds-id="ds-111" id="Vector_94" d="M16.9 42.52C19.8 44.32 23.3 45.42 26.9 45.42 " stroke="#000000ff" stroke-width="1.5" stroke-miterlimit="10" stroke-linecap="round" stroke-linejoin="round" opacity="1" fill="none"></path><path data-ds-id="ds-112" id="Vector_95" d="M50.2 119.22C50.2 120.62 50.8 121.92 51.8 122.72 " stroke="#000000ff" stroke-width="1.5" stroke-miterlimit="10" stroke-linecap="round" stroke-linejoin="round" opacity="1" fill="none"></path><path data-ds-id="ds-113" id="Vector_96" d="M36.7 122.72H33.5C31.6 122.72 30.1 121.22 30.1 119.32 " stroke="#000000ff" stroke-width="1.5" stroke-miterlimit="10" stroke-linecap="round" stroke-linejoin="round" opacity="1" fill="none"></path><path data-ds-id="ds-114" id="Vector_97" d="M0 21.62C8.9 27.02 17.1 26.62 17.1 26.62C17.1 26.62 10.4 30.82 5.9 30.22 " stroke="#000000ff" stroke-width="1.5" stroke-miterlimit="10" stroke-linecap="round" stroke-linejoin="round" opacity="1" fill="none"></path><path data-ds-id="ds-115" id="Vector_98" d="M17.8 26.62C17.8 26.62 29.7 27.32 35.1 23.02 " stroke="#000000ff" stroke-width="1.5" stroke-miterlimit="10" stroke-linecap="round" stroke-linejoin="round" opacity="1" fill="none"></path><path data-ds-id="ds-116" id="Vector_99" d="M18.6 27.02C18.6 27.02 24.7 32.42 31.3 29.92 " stroke="#000000ff" stroke-width="1.5" stroke-miterlimit="10" stroke-linecap="round" stroke-linejoin="round" opacity="1" fill="none"></path><path data-ds-id="ds-117" id="Vector_100" d="M17.8 28.62C18.9 28.62 19.8 27.72 19.8 26.62C19.8 25.51 18.9 24.62 17.8 24.62C16.69 24.62 15.8 25.51 15.8 26.62C15.8 27.72 16.69 28.62 17.8 28.62Z " fill="#000000ff" stroke="#000000ff" stroke-width="1.5" stroke-miterlimit="10" stroke-linecap="round" stroke-linejoin="round" opacity="1"></path><path data-ds-id="ds-118" id="Vector_101" d="M14.9 32.32C16.5 34.02 19.1 34.02 20.8 32.42L21 32.32 " stroke="#000000ff" stroke-width="1.5" stroke-miterlimit="10" stroke-linecap="round" stroke-linejoin="round" opacity="1" fill="none"></path><path data-ds-id="ds-119" id="Vector_102" d="M23.8 21.02H20.2 " stroke="#000000ff" stroke-width="1.5" stroke-miterlimit="10" stroke-linecap="round" stroke-linejoin="round" opacity="1" fill="none"></path><path data-ds-id="ds-120" id="Vector_103" d="M15.9 21.02H12.3 " stroke="#000000ff" stroke-width="1.5" stroke-miterlimit="10" stroke-linecap="round" stroke-linejoin="round" opacity="1" fill="none"></path><path data-ds-id="ds-121" id="Vector_104" d="M64.7 98.12L65.8 114.52 " stroke="#000000ff" stroke-width="1.5" stroke-miterlimit="10" stroke-linecap="round" stroke-linejoin="round" opacity="1" fill="none"></path><path data-ds-id="ds-122" id="Vector_105" d="M70.6 114.42C69.5 114.02 68.6 113.32 67.8 112.42C67 111.52 66.2 110.62 65.6 109.72L65.9 114.42H70.6Z " fill="#000000ff" stroke="#000000ff" stroke-width="1.5" stroke-miterlimit="10" stroke-linecap="round" stroke-linejoin="round" opacity="1"></path><path data-ds-id="ds-123" id="Vector_106" d="M31.7 103.81C29.2 104.61 27.9 106.71 26.2 108.81C24.5 110.91 23.2 112.71 22.4 115.61L27.7 97.01C27.7 97.01 27.6 96.21 29.3 99.51C31 102.81 31.7 103.81 31.7 103.81Z " fill="#000000ff" stroke="#000000ff" stroke-width="1.5" stroke-miterlimit="10" stroke-linecap="round" stroke-linejoin="round" opacity="1"></path><path data-ds-id="ds-124" id="Vector_107" d="M14.9 100.62C15.7 95.12 15.5 89.62 14.3 84.22L12 74.52 " stroke="#000000ff" stroke-width="1.5" stroke-miterlimit="10" stroke-linecap="round" stroke-linejoin="round" opacity="1" fill="none"></path><path data-ds-id="ds-125" id="Vector_108" d="M13.2 121.42C11.9 120.22 11.2 118.42 11.6 116.52L14.9 100.52 " stroke="#000000ff" stroke-width="1.5" stroke-miterlimit="10" stroke-linecap="round" stroke-linejoin="round" opacity="1" fill="none"></path></svg>