<svg height="700.3679240762813" width="622.1" xmlns="http://www.w3.org/2000/svg"><path data-ds-id="ds-335" d="M209.39997558593745 38.191932128906274C215.6999755859374 34.57093212890629 221.79997558593755 30.632932128906305 227.6999755859374 26.391932128906205 " stroke="#41867fff" stroke-width="3" stroke-linecap="round" stroke-linejoin="round" opacity="1" fill="none"></path><path data-ds-id="ds-336" d="M84.0999755859375 311.69293212890625H-0.000024414062522737368 " stroke="#1b1d1dff" stroke-width="11" stroke-linecap="round" stroke-linejoin="round" opacity="1" fill="none"></path><path data-ds-id="ds-337" d="M187.1999755859374 427.3929321289063L176.99997558593748 262.69293212890625C176.7099755859375 257.8729321289063 174.5899755859375 253.35293212890633 171.07997558593752 250.04293212890616C167.56997558593753 246.7329321289062 162.91997558593755 244.8929321289063 158.0999755859375 244.8929321289063H114.5999755859375C110.31097558593751 244.9029321289063 106.14997558593745 246.35293212890633 102.79297558593748 249.02293212890618C99.43497558593754 251.69293212890625 97.0759755859375 255.41293212890628 96.0999755859375 259.59293212890634L57.299975585937545 427.3929321289063 " stroke="#141515ff" stroke-width="11" stroke-linecap="round" stroke-linejoin="round" opacity="1" fill="none"></path><path data-ds-id="ds-338" d="M97.2009755859375 295.9929321289062H72.40097558593754 " stroke="#1b1d1dff" stroke-width="11" stroke-linecap="round" stroke-linejoin="round" opacity="1" fill="none"></path><path data-ds-id="ds-339" d="M540.8999755859375 158.59293212890623H475.6999755859374C473.30997558593754 158.59293212890623 471.0199755859376 157.64493212890625 469.3399755859375 155.95693212890626C467.64997558593745 154.26993212890625 466.6999755859374 151.97993212890628 466.6999755859374 149.59293212890623C466.6999755859374 147.20593212890628 467.64997558593745 144.9169321289063 469.3399755859375 143.2289321289062C471.0199755859376 141.5419321289063 473.30997558593754 140.59293212890623 475.6999755859374 140.59293212890623H540.8999755859375C543.2899755859376 140.59293212890623 545.5799755859375 141.5419321289063 547.2599755859376 143.2289321289062C548.9499755859374 144.9169321289063 549.8999755859375 147.20593212890628 549.8999755859375 149.59293212890623C549.8999755859375 151.97993212890628 548.9499755859374 154.26993212890625 547.2599755859376 155.95693212890626C545.5799755859375 157.64493212890625 543.2899755859376 158.59293212890623 540.8999755859375 158.59293212890623V158.59293212890623Z " fill="#1b1d1dff" opacity="1" stroke="none"></path><path data-ds-id="ds-340" d="M134.29997558593755 467.19293212890625H74.79997558593755C42.399975585937455 507.8929321289063 40.799975585937545 581.1929321289062 40.799975585937545 581.1929321289062H92.19997558593752C92.19997558593752 550.2929321289062 98.89997558593745 520.4929321289062 111.19997558593752 497.19293212890625C117.69997558593752 484.8929321289063 125.5999755859375 474.69293212890625 134.29997558593755 467.19293212890625Z " fill="#1b1d1dff" opacity="1" stroke="none"></path><path data-ds-id="ds-341" d="M40.80097558593752 581.1929321289062L40.30097558593752 578.5929321289063C38.96897558593753 571.1029321289063 38.531975585937516 563.4829321289062 39.000975585937454 555.8929321289063C40.2009755859375 534.4929321289062 45.30097558593752 491.79293212890616 66.10097558593748 467.19293212890625H91.10097558593748C82.30097558593752 474.69293212890625 74.50097558593745 484.8929321289063 68.00097558593745 497.29293212890616C56.80097558593752 518.5929321289063 50.2009755859375 545.2929321289062 49.2009755859375 573.2929321289062C49.049975585937545 575.4229321289063 48.10197558593745 577.4229321289063 46.545975585937526 578.8829321289063C44.98897558593751 580.3529321289063 42.937975585937465 581.1729321289063 40.80097558593752 581.1929321289062Z " fill="#404a4aff" opacity="1" stroke="none"></path><path data-ds-id="ds-342" d="M50.49997558593748 487.69293212890625H43.899975585937455C38.799975585937545 487.69293212890625 34.5999755859375 494.69293212890625 34.5999755859375 503.3929321289063C34.5999755859375 512.0929321289063 38.69997558593752 519.0929321289063 43.899975585937455 519.0929321289063H50.49997558593748C55.5999755859375 519.0929321289063 59.799975585937545 512.0929321289063 59.799975585937545 503.3929321289063C59.799975585937545 494.79293212890616 55.5999755859375 487.69293212890625 50.49997558593748 487.69293212890625Z " fill="#e08134ff" opacity="1" stroke="none"></path><path data-ds-id="ds-343" d="M49.5999755859375 515.6929321289062C51.799975585937545 512.7929321289062 53.0999755859375 508.3929321289063 53.0999755859375 503.3929321289063C53.0999755859375 498.3929321289063 51.69997558593752 493.8929321289063 49.5999755859375 491.09293212890634 " stroke="#d86b13ff" stroke-width="3" stroke-linecap="round" opacity="1" fill="none"></path><path data-ds-id="ds-344" d="M70.0999755859375 581.1929321289062C70.0999755859375 637.7929321289062 107.89997558593745 687.2929321289062 163.29997558593755 652.6929321289062C139.99997558593748 652.6929321289062 121.0999755859375 620.6929321289062 121.0999755859375 581.1929321289062C121.0999755859375 541.6929321289062 139.99997558593748 509.69293212890625 163.29997558593755 509.69293212890625C123.5999755859375 469.4929321289062 70.0999755859375 512.1929321289062 70.0999755859375 581.1929321289062Z " fill="#1b1d1dff" opacity="1" stroke="none"></path><path data-ds-id="ds-345" d="M70.0999755859375 581.1929321289062C70.0999755859375 637.7929321289062 107.89997558593745 687.2929321289062 163.29997558593755 652.6929321289062C139.99997558593748 652.6929321289062 121.0999755859375 620.6929321289062 121.0999755859375 581.1929321289062C121.0999755859375 541.6929321289062 139.99997558593748 509.69293212890625 163.29997558593755 509.69293212890625C123.5999755859375 469.4929321289062 70.0999755859375 512.1929321289062 70.0999755859375 581.1929321289062Z " stroke="#708986ff" stroke-width="7" stroke-linecap="round" stroke-linejoin="round" opacity="1" fill="none"></path><path data-ds-id="ds-346" d="M163.29997558593755 630.1929321289062C179.31997558593753 630.1929321289062 192.29997558593755 608.2529321289062 192.29997558593755 581.1929321289062C192.29997558593755 554.1329321289063 179.31997558593753 532.1929321289062 163.29997558593755 532.1929321289062C147.28397558593747 532.1929321289062 134.29997558593755 554.1329321289063 134.29997558593755 581.1929321289062C134.29997558593755 608.2529321289062 147.28397558593747 630.1929321289062 163.29997558593755 630.1929321289062Z " fill="#404a4aff" opacity="1" stroke="none"></path><path data-ds-id="ds-347" d="M163.29997558593755 606.9929321289062C171.68997558593753 606.9929321289062 178.49997558593748 595.4429321289062 178.49997558593748 581.1929321289062C178.49997558593748 566.9429321289062 171.68997558593753 555.3929321289063 163.29997558593755 555.3929321289063C154.90497558593745 555.3929321289063 148.0999755859375 566.9429321289062 148.0999755859375 581.1929321289062C148.0999755859375 595.4429321289062 154.90497558593745 606.9929321289062 163.29997558593755 606.9929321289062Z " stroke="#272b2bff" stroke-width="4" stroke-linecap="round" stroke-linejoin="round" opacity="1" fill="none"></path><path data-ds-id="ds-348" d="M163.29997558593755 563.1929321289062H131.50097558593745C131.29597558593753 563.1729321289063 131.0899755859375 563.2129321289062 130.90097558593754 563.2929321289062C125.30097558593752 563.7929321289062 120.90097558593754 571.6929321289062 120.90097558593754 581.2929321289062C120.90097558593754 590.8929321289063 125.30097558593752 598.6929321289062 130.90097558593754 599.2929321289062H163.29997558593755C169.19997558593752 599.2929321289062 173.89997558593745 591.1929321289062 173.89997558593745 581.2929321289062C173.89997558593745 571.1929321289062 169.19997558593752 563.1929321289062 163.29997558593755 563.1929321289062Z " fill="#272b2bff" opacity="1" stroke="none"></path><path data-ds-id="ds-349" d="M173.5999755859375 464.4929321289062C156.55897558593745 461.19293212890625 139.0419755859375 461.19293212890625 121.99997558593748 464.4929321289062C87.5999755859375 471.19293212890625 60.99997558593748 521.0929321289063 60.99997558593748 581.1929321289062C60.99997558593748 641.2929321289062 87.5999755859375 691.1929321289062 121.99997558593748 697.8929321289063C139.0419755859375 701.1929321289062 156.55897558593745 701.1929321289062 173.5999755859375 697.8929321289063C208.0999755859375 691.1929321289062 234.5999755859375 641.2929321289062 234.5999755859375 581.1929321289062C234.5999755859375 521.0929321289063 207.9999755859376 471.19293212890625 173.5999755859375 464.4929321289062ZM136.89997558593745 652.6929321289062C113.5999755859375 652.6929321289062 94.69997558593752 620.6929321289062 94.69997558593752 581.1929321289062C94.69997558593752 541.6929321289062 113.5999755859375 509.69293212890625 136.89997558593745 509.69293212890625C160.19997558593752 509.69293212890625 179.0999755859375 541.6929321289062 179.0999755859375 581.1929321289062C179.0999755859375 620.6929321289062 160.19997558593752 652.6929321289062 136.89997558593745 652.6929321289062Z " fill="#323a3aff" opacity="1" stroke="none"></path><path data-ds-id="ds-350" d="M131.50097558593745 613.4929321289062C142.04897558593746 613.4929321289062 150.60097558593748 599.0329321289062 150.60097558593748 581.1929321289062C150.60097558593748 563.3529321289063 142.04897558593746 548.8929321289063 131.50097558593745 548.8929321289063C120.95197558593748 548.8929321289063 112.40097558593754 563.3529321289063 112.40097558593754 581.1929321289062C112.40097558593754 599.0329321289062 120.95197558593748 613.4929321289062 131.50097558593745 613.4929321289062Z " fill="#708986ff" opacity="1" stroke="none"></path><path data-ds-id="ds-351" d="M131.50097558593745 596.6929321289062C136.52697558593752 596.6929321289062 140.60097558593748 589.7529321289062 140.60097558593748 581.1929321289062C140.60097558593748 572.6329321289063 136.52697558593752 565.6929321289062 131.50097558593745 565.6929321289062C126.4749755859375 565.6929321289062 122.40097558593754 572.6329321289063 122.40097558593754 581.1929321289062C122.40097558593754 589.7529321289062 126.4749755859375 596.6929321289062 131.50097558593745 596.6929321289062Z " stroke="#404a4aff" stroke-width="7" stroke-linecap="round" stroke-linejoin="round" opacity="1" fill="none"></path><path data-ds-id="ds-352" d="M123.60097558593748 475.09293212890634C89.00097558593745 475.09293212890634 60.900975585937545 522.5929321289063 60.900975585937545 581.1929321289062C60.900975585937545 639.7929321289062 89.00097558593745 687.2929321289062 123.60097558593748 687.2929321289062C158.2009755859375 687.2929321289062 186.29997558593755 639.7929321289062 186.29997558593755 581.1929321289062C186.29997558593755 522.5929321289063 158.2009755859375 475.09293212890634 123.60097558593748 475.09293212890634ZM136.90097558593754 652.6929321289062C113.60097558593748 652.6929321289062 94.7009755859375 620.6929321289062 94.7009755859375 581.1929321289062C94.7009755859375 541.6929321289062 113.60097558593748 509.69293212890625 136.90097558593754 509.69293212890625C160.19997558593752 509.69293212890625 179.0999755859375 541.6929321289062 179.0999755859375 581.1929321289062C179.0999755859375 620.6929321289062 160.19997558593752 652.6929321289062 136.90097558593754 652.6929321289062Z " fill="#272b2bff" opacity="1" stroke="none"></path><path data-ds-id="ds-353" d="M136.90097558593754 652.6929321289062C160.2099755859375 652.6929321289062 179.0999755859375 620.6829321289063 179.0999755859375 581.1929321289062C179.0999755859375 541.7029321289062 160.2099755859375 509.69293212890625 136.90097558593754 509.69293212890625C113.59397558593753 509.69293212890625 94.7009755859375 541.7029321289062 94.7009755859375 581.1929321289062C94.7009755859375 620.6829321289063 113.59397558593753 652.6929321289062 136.90097558593754 652.6929321289062Z " stroke="#708986ff" stroke-width="7" stroke-linecap="round" stroke-linejoin="round" opacity="1" fill="none"></path><path data-ds-id="ds-354" d="M196.1999755859374 536.8929321289063H168.29997558593755C155.80097558593752 536.8929321289063 145.7009755859375 553.9929321289062 145.7009755859375 575.1929321289062C145.7009755859375 596.2929321289062 155.80097558593752 613.4929321289062 168.29997558593755 613.4929321289062H196.1999755859374C208.6999755859374 613.4929321289062 218.79997558593755 596.3929321289063 218.79997558593755 575.1929321289062C218.79997558593755 554.0929321289063 208.6999755859374 536.8929321289063 196.1999755859374 536.8929321289063Z " fill="#404a4aff" opacity="1" stroke="none"></path><path data-ds-id="ds-355" d="M168.29997558593755 605.5929321289063C178.2399755859375 605.5929321289063 186.29997558593755 591.9829321289062 186.29997558593755 575.1929321289062C186.29997558593755 558.4029321289063 178.2399755859375 544.7929321289062 168.29997558593755 544.7929321289062C158.35897558593751 544.7929321289062 150.29997558593755 558.4029321289063 150.29997558593755 575.1929321289062C150.29997558593755 591.9829321289062 158.35897558593751 605.5929321289063 168.29997558593755 605.5929321289063Z " stroke="#272b2bff" stroke-width="4" stroke-linecap="round" stroke-linejoin="round" opacity="1" fill="none"></path><path data-ds-id="ds-356" d="M168.29997558593755 593.3929321289063C174.26997558593746 593.3929321289063 179.0999755859375 585.2429321289062 179.0999755859375 575.1929321289062C179.0999755859375 565.1429321289063 174.26997558593746 556.9929321289062 168.29997558593755 556.9929321289062C162.3399755859375 556.9929321289062 157.49997558593748 565.1429321289063 157.49997558593748 575.1929321289062C157.49997558593748 585.2429321289062 162.3399755859375 593.3929321289063 168.29997558593755 593.3929321289063Z " fill="#272b2bff" opacity="1" stroke="none"></path><path data-ds-id="ds-357" d="M192.1999755859374 606.9929321289062H276.5999755859375 " stroke="#708986ff" stroke-width="17" stroke-linecap="round" stroke-linejoin="round" opacity="1" fill="none"></path><path data-ds-id="ds-358" d="M25.900975585937545 532.1929321289062C21.400975585937545 529.6929321289062 15.600975585937476 531.6929321289062 12.900975585937545 536.5929321289063C11.681975585937494 538.7129321289062 11.30397558593745 541.2229321289062 11.840975585937485 543.6029321289063C12.37797558593752 545.9929321289062 13.790975585937531 548.0929321289063 15.800975585937522 549.4929321289062C16.021975585937525 549.5929321289063 16.2249755859375 549.7229321289062 16.400975585937545 549.8929321289063L34.000975585937454 559.3929321289063L43.500975585937454 541.7929321289062L25.900975585937545 532.1929321289062Z " fill="#1b1d1dff" opacity="1" stroke="none"></path><path data-ds-id="ds-359" d="M136.79997558593755 640.5929321289063C130.92897558593745 640.5829321289064 125.15497558593745 639.1029321289063 119.99997558593748 636.2929321289062L46.99997558593748 596.3929321289063C38.86397558593751 591.9329321289063 32.83197558593747 584.4229321289063 30.22897558593752 575.5229321289062C27.625975585937454 566.6129321289063 28.66597558593753 557.0429321289062 33.11997558593748 548.9029321289063C37.573975585937546 540.7629321289062 45.076975585937475 534.7329321289062 53.979975585937495 532.1229321289063C62.88397558593749 529.5129321289062 72.45797558593745 530.5429321289062 80.5999755859375 534.9929321289062L153.5999755859375 574.8929321289063C160.41997558593755 578.6229321289063 165.79997558593755 584.5229321289062 168.89997558593745 591.6529321289063C171.9899755859375 598.7829321289062 172.62997558593747 606.7329321289062 170.69997558593752 614.2629321289062C168.77997558593745 621.7929321289062 164.39997558593745 628.4729321289062 158.26197558593753 633.2329321289062C152.12297558593752 638.0029321289062 144.57197558593748 640.5929321289063 136.79997558593755 640.5929321289063V640.5929321289063Z " fill="#272b2bff" opacity="1" stroke="none"></path><path data-ds-id="ds-360" d="M140.30097558593752 623.0929321289063C133.51497558593746 623.0929321289063 126.83997558593751 621.3729321289063 120.90097558593754 618.0929321289063L36.7009755859375 571.9929321289062C33.88897558593749 570.4429321289062 31.27097558593755 568.5629321289061 28.900975585937545 566.3929321289063C29.031975585937516 572.5329321289062 30.78397558593747 578.5429321289062 33.979975585937495 583.7929321289062C37.17597558593752 589.0429321289062 41.701975585937475 593.3529321289063 47.100975585937476 596.2929321289062L120.10097558593748 636.1929321289062C124.13197558593754 638.4029321289063 128.55897558593745 639.7929321289062 133.12797558593752 640.2829321289062C137.69697558593748 640.7829321289062 142.31997558593753 640.3729321289063 146.73097558593747 639.0829321289064C151.14197558593753 637.7929321289062 155.25597558593745 635.6429321289063 158.8399755859375 632.7629321289062C162.41997558593755 629.8829321289063 165.39997558593745 626.3229321289064 167.5999755859375 622.2929321289062C170.01997558593746 617.8829321289063 171.4599755859375 613.0029321289062 171.79997558593755 607.9929321289062C168.00997558593747 612.7029321289062 163.2099755859375 616.5029321289062 157.7629755859375 619.1129321289063C152.3119755859375 621.7229321289062 146.34597558593748 623.0829321289064 140.30097558593752 623.0929321289063V623.0929321289063Z " fill="#1b1d1dff" opacity="0.7" stroke="none"></path><path data-ds-id="ds-361" d="M254.0999755859375 574.3929321289063C253.01997558593757 573.6529321289063 251.79997558593755 573.1229321289063 250.50997558593758 572.8529321289063C249.2299755859376 572.5829321289064 247.89997558593745 572.5629321289061 246.6099755859375 572.8129321289061C245.31997558593753 573.0529321289061 244.0899755859375 573.5429321289062 242.9899755859376 574.2629321289062C241.88997558593746 574.9829321289062 240.93997558593742 575.9129321289063 240.1999755859374 576.9929321289062L221.6999755859374 603.7929321289062C218.62997558593747 608.1929321289062 214.14997558593745 611.4029321289063 208.9999755859376 612.8929321289063L194.1999755859374 616.9929321289062C188.4999755859376 618.5829321289064 182.40997558593745 617.9029321289063 177.19997558593752 615.0929321289063L159.5999755859375 605.5929321289063C159.3399755859375 605.4429321289062 159.07997558593752 605.3029321289061 158.79997558593755 605.1929321289062C156.51897558593748 604.4329321289063 154.04097558593753 604.5029321289062 151.8109755859375 605.4129321289063C149.5809755859375 606.3129321289061 147.74697558593755 607.9829321289062 146.63697558593753 610.1129321289063C145.5279755859375 612.2429321289062 145.21697558593746 614.7029321289062 145.75997558593747 617.0529321289061C146.30297558593747 619.3929321289063 147.66497558593755 621.4629321289062 149.5999755859375 622.8929321289063C149.82197558593748 622.9929321289062 150.02497558593745 623.1229321289063 150.19997558593752 623.2929321289062V623.2929321289062L167.79997558593755 632.7929321289062C174.05997558593754 636.1929321289062 181.06997558593753 637.9829321289062 188.1999755859374 637.9929321289062C192.0899755859375 638.0129321289062 195.9599755859374 637.4729321289062 199.6999755859374 636.3929321289063L214.4999755859376 632.2929321289062C224.2099755859374 629.6029321289063 232.66997558593744 623.5929321289063 238.39997558593745 615.2929321289062L256.89997558593745 588.4929321289062C258.30997558593754 586.2229321289062 258.79997558593755 583.5129321289062 258.27997558593756 580.8929321289063C257.7599755859376 578.2729321289062 256.2699755859376 575.9529321289062 254.0999755859375 574.3929321289063V574.3929321289063Z " fill="#1b1d1dff" opacity="1" stroke="none"></path><path data-ds-id="ds-362" d="M218.79997558593755 575.1929321289062L232.89997558593745 595.9929321289062C236.53997558593755 601.3729321289063 241.43997558593742 605.7829321289062 247.17997558593743 608.8329321289064C252.90997558593745 611.8829321289063 259.29997558593755 613.4829321289062 265.79997558593755 613.4929321289062H331.39997558593745C338.7399755859376 613.5029321289062 346.0099755859376 612.0729321289064 352.79997558593755 609.2929321289062L399.1999755859374 590.1929321289062L218.79997558593755 575.1929321289062Z " fill="#c25024ff" opacity="1" stroke="none"></path><path data-ds-id="ds-363" d="M356.89997558593745 503.3929321289063L346.29997558593755 463.59293212890634L351.5999755859375 401.3929321289063C351.5999755859375 401.3929321289063 279.1999755859374 332.9929321289062 147.79997558593755 332.9929321289062C116.69997558593752 332.9929321289062 97.89997558593745 345.4929321289062 97.89997558593745 345.4929321289062L60.99997558593748 417.8929321289063L172.89997558593745 513.7929321289062L294.5999755859375 521.6929321289062L356.89997558593745 503.3929321289063Z " fill="#e26433ff" opacity="1" stroke="none"></path><path data-ds-id="ds-364" d="M165.39997558593745 539.2929321289062L78.40097558593754 508.19293212890625C66.4699755859375 503.95293212890624 56.13497558593747 496.1329321289063 48.799975585937545 485.81293212890614C41.46497558593751 475.4829321289062 37.48497558593749 463.1529321289063 37.400975585937545 450.4929321289062C37.420975585937526 445.28293212890617 37.72197558593746 440.07293212890636 38.30097558593752 434.8929321289063C39.646975585937525 422.79293212890616 43.40197558593752 411.07293212890636 49.34397558593753 400.44293212890625C55.285975585937535 389.81293212890614 63.295975585937526 380.4829321289062 72.90097558593754 372.9929321289062C85.29797558593748 363.55293212890615 98.71597558593749 355.54293212890616 112.90097558593754 349.09293212890634C112.90097558593754 349.09293212890634 206.5999755859375 323.69293212890625 210.79997558593755 417.8929321289063C214.89997558593745 512.1929321289062 177.69997558593752 545.0929321289063 177.69997558593752 545.0929321289063L165.39997558593745 539.2929321289062Z " fill="#e26433ff" opacity="1" stroke="none"></path><path data-ds-id="ds-365" d="M348.0999755859375 442.3929321289063L351.5999755859375 401.3929321289063C351.5999755859375 401.3929321289063 348.0999755859375 398.09293212890634 341.1999755859374 392.8929321289063C325.9999755859376 389.79293212890616 298.4999755859376 386.29293212890616 269.39997558593745 392.19293212890625C264.9299755859374 393.1229321289063 260.7499755859376 395.1229321289063 257.2299755859376 398.04293212890616C253.7099755859374 400.95293212890624 250.9499755859374 404.67293212890627 249.1999755859374 408.8929321289063C247.89997558593745 411.9929321289062 246.5999755859375 415.4929321289062 245.1999755859374 419.19293212890625C240.6999755859374 431.81293212890614 239.54997558593755 445.3829321289063 241.8599755859375 458.58293212890635C244.16997558593744 471.78293212890617 249.86997558593748 484.1529321289063 258.39997558593745 494.4929321289062C262.6999755859374 499.69293212890625 265.89997558593745 503.29293212890616 265.89997558593745 503.29293212890616L283.5999755859375 510.4929321289062C291.02997558593756 513.4829321289062 298.77997558593756 515.6029321289063 306.6999755859374 516.7929321289062L309.6999755859374 517.1929321289062L356.89997558593745 503.29293212890616L351.79997558593755 484.09293212890634C348.1199755859375 470.5229321289062 346.8699755859375 456.4029321289063 348.0999755859375 442.3929321289063V442.3929321289063Z " fill="#c25024ff" opacity="1" stroke="none"></path><path data-ds-id="ds-366" d="M118.19997558593752 339.09293212890634C118.19997558593752 339.09293212890634 130.79997558593755 336.09293212890634 162.39997558593745 333.59293212890634L135.49997558593748 308.59293212890634L107.29997558593755 310.69293212890625C107.39997558593745 310.69293212890625 107.29997558593755 333.19293212890625 118.19997558593752 339.09293212890634Z " fill="#272b2bff" opacity="1" stroke="none"></path><path data-ds-id="ds-367" d="M125.7009755859375 328.8929321289063C131.44497558593753 330.17293212890627 137.31497558593753 330.81293212890614 143.2009755859375 330.79293212890616H147.10097558593748 " stroke="#272b2bff" stroke-width="11" stroke-linecap="round" stroke-linejoin="round" opacity="1" fill="none"></path><path data-ds-id="ds-368" d="M345.39997558593745 304.69293212890625C341.88997558593746 299.71293212890623 337.2299755859376 295.6429321289063 331.8199755859375 292.84293212890634C326.39997558593745 290.04293212890616 320.39997558593745 288.58293212890635 314.29997558593755 288.59293212890634H269.0999755859375C265.1999755859374 283.85293212890633 260.2699755859376 280.05293212890615 254.6999755859374 277.4729321289062C249.12997558593747 274.8929321289063 243.03997558593755 273.60293212890633 236.89997558593745 273.69293212890625H123.7009755859375C102.80097558593752 273.69293212890625 89.7009755859375 276.8929321289063 87.7009755859375 284.3929321289063C85.7009755859375 291.9929321289062 84.30097558593752 324.09293212890634 97.90097558593754 345.3929321289063C104.42497558593755 342.46293212890623 111.2729755859375 340.31293212890614 118.30097558593752 338.9929321289062L117.00097558593745 323.3929321289063C116.89397558593748 322.19293212890625 117.24797558593752 321.0029321289062 117.99097558593746 320.05293212890615C118.73397558593751 319.10293212890633 119.80997558593754 318.4729321289062 121.00097558593745 318.29293212890616L125.2009755859375 317.59293212890634C126.22697558593745 317.43293212890626 127.2779755859375 317.6229321289063 128.18497558593754 318.1329321289063C129.09097558593749 318.6329321289063 129.80097558593752 319.43293212890626 130.2009755859375 320.3929321289063L135.60097558593748 333.4929321289062C135.9889755859375 334.44293212890625 136.65697558593752 335.2429321289062 137.51497558593746 335.79293212890616C138.37297558593752 336.35293212890633 139.37997558593747 336.6229321289063 140.40097558593754 336.59293212890634C143.60097558593748 336.4929321289062 147.00097558593745 336.3929321289063 150.50097558593745 336.3929321289063C208.89997558593745 336.3929321289063 261.89997558593745 401.29293212890616 296.89997558593745 401.29293212890616H353.5999755859375C355.9799755859376 401.31293212890614 358.30997558593754 400.6329321289063 360.30997558593754 399.3629321289063C362.3199755859375 398.08293212890635 363.90997558593745 396.2529321289062 364.89997558593745 394.09293212890634C367.6999755859374 387.9929321289062 370.89997558593745 377.79293212890616 370.89997558593745 363.29293212890616C370.89997558593745 348.19293212890625 357.5999755859375 322.09293212890634 345.39997558593745 304.69293212890625Z " fill="#443c34ff" opacity="1" stroke="none"></path><path data-ds-id="ds-369" d="M353.5999755859375 401.4929321289062C355.9799755859376 401.5129321289062 358.30997558593754 400.83293212890635 360.30997558593754 399.56293212890614C362.3199755859375 398.28293212890617 363.90997558593745 396.45293212890624 364.89997558593745 394.29293212890616C367.6999755859374 388.19293212890625 370.89997558593745 377.9929321289062 370.89997558593745 363.4929321289062C370.89997558593745 348.29293212890616 357.5999755859375 322.09293212890634 345.39997558593745 304.79293212890616C341.88997558593746 299.81293212890614 337.2299755859376 295.7429321289062 331.8199755859375 292.94293212890625C326.39997558593745 290.1429321289063 320.39997558593745 288.68293212890626 314.29997558593755 288.69293212890625H269.0999755859375C265.1999755859374 283.95293212890624 260.2699755859376 280.1529321289063 254.6999755859374 277.57293212890636C249.11997558593748 274.9929321289062 243.03997558593755 273.70293212890624 236.89997558593745 273.79293212890616H123.69997558593752C120.19997558593752 273.79293212890616 116.89997558593745 273.8929321289063 113.79997558593755 274.09293212890634C114.49997558593748 280.19293212890625 142.99997558593748 294.4929321289062 217.9999755859376 304.3929321289063C232.39997558593745 320.69293212890625 240.79997558593755 340.59293212890634 263.6999755859374 360.79293212890616C276.5999755859375 372.09293212890634 298.89997558593745 392.19293212890625 308.39997558593745 401.59293212890634H353.5999755859375V401.4929321289062Z " fill="#332e29ff" opacity="0.6" stroke="none"></path><path data-ds-id="ds-370" d="M356.89997558593745 503.3929321289063H265.89997558593745L199.0999755859375 509.69293212890625L165.39997558593745 539.2929321289062L343.4999755859376 586.8929321289063H463.89997558593745L466.79997558593755 524.4929321289062L356.89997558593745 503.3929321289063Z " fill="#e26433ff" opacity="1" stroke="none"></path><path data-ds-id="ds-371" d="M265.89997558593745 503.3929321289063L283.5999755859375 510.59293212890634C291.02997558593756 513.5829321289064 298.77997558593756 515.7029321289062 306.6999755859374 516.8929321289063L363.39997558593745 525.2929321289062H451.29997558593755L447.9999755859376 520.8929321289063L356.89997558593745 503.3929321289063H265.89997558593745Z " fill="#c25024ff" opacity="1" stroke="none"></path><path data-ds-id="ds-372" d="M356.89997558593745 503.3929321289063H265.89997558593745L206.1999755859374 507.19293212890625C204.2399755859376 507.33293212890635 202.3599755859375 508.0129321289062 200.76997558593757 509.1629321289063C199.17997558593743 510.30293212890615 197.9499755859374 511.8729321289063 197.1999755859374 513.6929321289062C190.4999755859376 529.9929321289062 183.1999755859374 539.2929321289062 179.69997558593752 543.0929321289063L343.5999755859375 586.8929321289063H463.9999755859376L466.89997558593745 524.4929321289062L356.89997558593745 503.3929321289063Z " stroke="#933510ff" stroke-width="4" stroke-linecap="round" stroke-linejoin="round" opacity="0.4" fill="none"></path><path data-ds-id="ds-373" d="M165.39997558593745 539.2929321289062H182.9999755859376L358.5999755859375 546.8929321289063L336.4999755859376 585.4929321289062L165.39997558593745 539.2929321289062Z " fill="#323a3aff" opacity="1" stroke="none"></path><path data-ds-id="ds-374" d="M94.29997558593755 358.79293212890616C100.32897558593754 355.2729321289062 106.53697558593751 352.06293212890614 112.89997558593745 349.19293212890625C112.89997558593745 349.19293212890625 206.5999755859375 323.79293212890616 210.79997558593755 417.9929321289062C212.79997558593755 462.69293212890625 205.39997558593745 493.59293212890634 197.0999755859375 513.6929321289062 " stroke="#933510ff" stroke-width="4" stroke-linecap="round" stroke-linejoin="round" opacity="0.4" fill="none"></path><path data-ds-id="ds-375" d="M279.1999755859374 503.3929321289063L265.4999755859376 470.3929321289063C264.80997558593754 468.7229321289062 264.53997558593755 466.9129321289063 264.7099755859374 465.1229321289063C264.88997558593746 463.32293212890636 265.4999755859376 461.60293212890633 266.4999755859376 460.10293212890633C267.4899755859376 458.59293212890634 268.8499755859375 457.3629321289063 270.4399755859374 456.5029321289062C272.0199755859376 455.6529321289063 273.79997558593755 455.20293212890624 275.5999755859375 455.19293212890625H324.1999755859374C327.66997558593744 455.19293212890625 331.03997558593755 456.34293212890634 333.78997558593755 458.45293212890624C336.53997558593755 460.57293212890636 338.5099755859376 463.54293212890616 339.39997558593745 466.8929321289063L349.0999755859375 503.3929321289063 " stroke="#933510ff" stroke-width="4" stroke-linecap="round" stroke-linejoin="round" opacity="0.4" fill="none"></path><path data-ds-id="ds-376" d="M506.9999755859376 126.09193212890625L504.29997558593755 124.09193212890625C499.1999755859374 120.2919321289063 494.1999755859374 116.2919321289063 489.39997558593745 112.09193212890625C478.4999755859376 102.59193212890625 453.89997558593745 83.19193212890627 434.9999755859376 83.19193212890627C415.5899755859375 83.09693212890625 396.64997558593745 89.15293212890629 380.89997558593745 100.49193212890623C364.4299755859374 112.31393212890623 345.53997558593755 120.3399321289063 325.5999755859375 123.99193212890623L297.4999755859376 129.09193212890625C294.6299755859375 129.60993212890628 291.88997558593746 130.74093212890625 289.4899755859376 132.40793212890628C287.0899755859375 134.0749321289062 285.0799755859375 136.2389321289063 283.5899755859375 138.7529321289062C282.0999755859375 141.2669321289062 281.16997558593744 144.07193212890627 280.8599755859375 146.97693212890624C280.54997558593755 149.8829321289063 280.8699755859375 152.8209321289063 281.79997558593755 155.59193212890625C281.79997558593755 155.69193212890627 281.89997558593745 155.8919321289062 281.89997558593745 155.99193212890623C283.1199755859375 159.3449321289063 285.2099755859374 162.3149321289062 287.9499755859374 164.59793212890622C290.6899755859374 166.88193212890621 293.9799755859376 168.3979321289063 297.4999755859376 168.99193212890623L345.79997558593755 177.3919321289062C357.4899755859376 179.43393212890624 367.9999755859376 185.74193212890623 375.29997558593755 195.09193212890625L379.6999755859374 200.69193212890627L460.1999755859374 198.19193212890627L461.9999755859376 195.3919321289062C468.1199755859375 185.8439321289062 477.4499755859374 178.78793212890628 488.29997558593755 175.49193212890623L498.9999755859376 172.19193212890627C504.91997558593744 170.36493212890628 510.0099755859376 166.50193212890622 513.3599755859375 161.2859321289062C516.7099755859374 156.0709321289063 518.0999755859375 149.83793212890623 517.2999755859375 143.69193212890627C517.3199755859375 143.5509321289062 517.2799755859376 143.40993212890623 517.1999755859374 143.2919321289063C516.7299755859376 139.88993212890625 515.5899755859375 136.61593212890625 513.8399755859375 133.6619321289063C512.0899755859375 130.70793212890624 509.7599755859376 128.13493212890626 506.9999755859376 126.09193212890625V126.09193212890625Z " fill="#323a3aff" opacity="1" stroke="none"></path><path data-ds-id="ds-377" d="M461.89997558593745 195.3929321289063C468.0199755859376 185.8449321289063 477.3499755859375 178.78993212890623 488.1999755859374 175.4929321289062L498.89997558593745 172.19293212890625C503.91997558593744 170.62693212890622 508.3599755859375 167.6039321289062 511.64997558593745 163.50893212890628C514.9399755859374 159.41293212890628 516.9499755859374 154.42993212890622 517.3999755859375 149.19293212890625H509.29997558593755C493.6999755859374 149.19293212890625 469.1999755859374 174.09293212890623 441.79997558593755 174.09293212890623C398.79997558593755 174.09293212890623 388.29997558593755 148.59293212890623 359.0999755859375 148.59293212890623H280.5999755859375C280.5199755859376 150.9749321289063 280.89997558593745 153.3499321289063 281.6999755859374 155.59293212890623C281.6999755859374 155.69293212890625 281.79997558593755 155.8929321289063 281.79997558593755 155.9929321289062C283.0199755859376 159.34593212890627 285.0999755859375 162.3159321289063 287.8399755859375 164.5989321289062C290.5899755859375 166.8829321289063 293.8799755859375 168.39893212890627 297.39997558593745 168.9929321289062L345.6999755859374 177.3929321289063C357.38997558593746 179.4349321289062 367.89997558593745 185.7429321289062 375.1999755859374 195.09293212890623L379.5999755859375 200.69293212890625L460.0999755859375 198.19293212890625L461.89997558593745 195.3929321289063Z " fill="#272b2bff" opacity="0.6" stroke="none"></path><path data-ds-id="ds-378" d="M249.1999755859374 50.69293212890625L303.0999755859375 90.3929321289063C309.7199755859374 95.24093212890625 314.5699755859375 102.12593212890624 316.89997558593745 109.9929321289062L324.29997558593755 134.59293212890623 " stroke="#313a3aff" stroke-width="8" stroke-linecap="round" stroke-linejoin="round" opacity="1" fill="none"></path><path data-ds-id="ds-379" d="M226.6999755859374 68.79293212890627C243.54997558593755 68.79293212890627 257.1999755859374 55.13693212890621 257.1999755859374 38.29293212890627C257.1999755859374 21.447932128906245 243.54997558593755 7.792932128906273 226.6999755859374 7.792932128906273C209.8599755859375 7.792932128906273 196.1999755859374 21.447932128906245 196.1999755859374 38.29293212890627C196.1999755859374 55.13693212890621 209.8599755859375 68.79293212890627 226.6999755859374 68.79293212890627Z " fill="#323a3aff" opacity="1" stroke="none"></path><path data-ds-id="ds-380" d="M523.5999755859375 50.69293212890625L496.5999755859375 90.3929321289063C493.29997558593755 95.29293212890627 490.89997558593745 102.09293212890623 489.6999755859374 109.9929321289062L485.9999755859376 134.59293212890623 " stroke="#313a3aff" stroke-width="8" stroke-linecap="round" stroke-linejoin="round" opacity="1" fill="none"></path><path data-ds-id="ds-381" d="M552.4099755859374 34.555932128906306C554.6799755859374 17.028932128906263 547.2099755859374 1.60993212890628 535.6999755859374 0.11693212890622817C524.1999755859374 -1.3770678710938 513.0299755859376 11.619932128906271 510.7599755859376 29.145932128906225C508.4799755859376 46.67293212890627 515.9599755859374 62.090932128906275 527.4599755859374 63.5849321289063C538.9599755859374 65.07893212890622 550.1299755859375 52.08193212890626 552.4099755859374 34.555932128906306Z " fill="#323a3aff" opacity="1" stroke="none"></path><path data-ds-id="ds-382" d="M106.0999755859375 396.69293212890625L85.19997558593752 393.59293212890634C62.69997558593752 390.19293212890625 43.899975585937455 406.3929321289063 38.799975585937545 431.19293212890625C37.2969755859375 441.83293212890635 37.06197558593749 452.60293212890633 38.0999755859375 463.29293212890616C39.13897558593749 472.84293212890634 42.85197558593745 481.9129321289063 48.813975585937555 489.45293212890624C54.774975585937455 496.9829321289062 62.74297558593753 502.68293212890626 71.79997558593755 505.8929321289063L137.29997558593755 529.2929321289062C147.39997558593745 520.0929321289063 153.79997558593755 505.29293212890616 153.79997558593755 487.69293212890625V462.19293212890625C153.79997558593755 429.9929321289062 132.39997558593745 400.59293212890634 106.0999755859375 396.69293212890625Z " fill="#c25024ff" opacity="1" stroke="none"></path><path data-ds-id="ds-383" d="M92.2009755859375 284.8929321289063L119.40097558593754 287.4929321289062C126.98597558593747 288.18293212890626 134.17597558593752 291.18293212890626 140.00097558593745 296.09293212890634V296.09293212890634C145.36997558593748 300.57293212890636 151.87797558593752 303.4829321289062 158.79997558593755 304.4929321289062L189.4999755859376 308.8929321289063C196.42997558593743 309.8829321289063 203.4899755859376 309.20293212890624 210.0999755859375 306.8929321289063C240.39997558593745 296.29293212890616 257.29997558593755 292.29293212890616 279.89997558593745 292.29293212890616C310.79997558593755 292.29293212890616 335.29997558593755 337.19293212890625 298.6999755859374 398.29293212890616 " stroke="#332e29ff" stroke-width="4" stroke-linecap="round" stroke-linejoin="round" opacity="1" fill="none"></path><path data-ds-id="ds-384" d="M290.9999755859376 158.59293212890623H225.79997558593755C223.40997558593745 158.59293212890623 221.11997558593748 157.64493212890625 219.43997558593742 155.95693212890626C217.7499755859376 154.26993212890625 216.79997558593755 151.97993212890628 216.79997558593755 149.59293212890623C216.79997558593755 147.20593212890628 217.7499755859376 144.9169321289063 219.43997558593742 143.2289321289062C221.11997558593748 141.5419321289063 223.40997558593745 140.59293212890623 225.79997558593755 140.59293212890623H290.9999755859376C293.38997558593746 140.59293212890623 295.6799755859374 141.5419321289063 297.3599755859375 143.2289321289062C299.04997558593755 144.9169321289063 299.9999755859376 147.20593212890628 299.9999755859376 149.59293212890623C299.9999755859376 151.97993212890628 299.04997558593755 154.26993212890625 297.3599755859375 155.95693212890626C295.6799755859374 157.64493212890625 293.38997558593746 158.59293212890623 290.9999755859376 158.59293212890623Z " fill="#1b1d1dff" opacity="1" stroke="none"></path><path data-ds-id="ds-385" d="M322.89997558593745 494.09293212890634H299.1999755859374C297.8799755859375 494.09293212890634 296.6099755859375 493.56293212890614 295.66997558593744 492.6229321289063C294.7299755859376 491.68293212890626 294.1999755859374 490.42293212890627 294.1999755859374 489.09293212890634C294.1999755859374 487.7729321289062 294.7299755859376 486.5029321289062 295.66997558593744 485.56293212890614C296.6099755859375 484.6229321289063 297.8799755859375 484.09293212890634 299.1999755859374 484.09293212890634H322.89997558593745C324.2299755859376 484.09293212890634 325.4899755859376 484.6229321289063 326.4299755859374 485.56293212890614C327.3699755859375 486.5029321289062 327.89997558593745 487.7729321289062 327.89997558593745 489.09293212890634V489.09293212890634C327.8799755859375 490.4129321289063 327.3499755859375 491.67293212890627 326.40997558593745 492.60293212890633C325.4799755859376 493.54293212890616 324.2199755859374 494.07293212890636 322.89997558593745 494.09293212890634V494.09293212890634Z " fill="#272b2bff" opacity="1" stroke="none"></path><path data-ds-id="ds-387" d="M339.5999755859375 389.59293212890634C342.39997558593745 383.6329321289063 344.3199755859375 377.30293212890615 345.29997558593755 370.79293212890616Z " fill="#404a4aff" opacity="1" stroke="none"></path><path data-ds-id="ds-388" d="M339.5999755859375 389.59293212890634C342.39997558593745 383.6329321289063 344.3199755859375 377.30293212890615 345.29997558593755 370.79293212890616 " stroke="#303131ff" stroke-width="9" stroke-linecap="round" stroke-linejoin="round" opacity="1" fill="none"></path><path data-ds-id="ds-389" d="M441.4999755859376 163.79293212890627C460.65997558593745 163.79293212890627 476.1999755859374 147.18293212890626 476.1999755859374 126.69293212890625C476.1999755859374 106.20393212890622 460.65997558593745 89.59293212890623 441.4999755859376 89.59293212890623C422.3399755859375 89.59293212890623 406.79997558593755 106.20393212890622 406.79997558593755 126.69293212890625C406.79997558593755 147.18293212890626 422.3399755859375 163.79293212890627 441.4999755859376 163.79293212890627Z " fill="#272b2bff" opacity="1" stroke="none"></path><path data-ds-id="ds-390" d="M441.4999755859376 99.59293212890623C455.0999755859375 99.59293212890623 466.1999755859374 111.79293212890627 466.1999755859374 126.69293212890625C466.1999755859374 141.69293212890625 455.0999755859375 153.79293212890627 441.4999755859376 153.79293212890627C427.89997558593745 153.79293212890627 416.79997558593755 141.59293212890623 416.79997558593755 126.69293212890625C416.89997558593745 111.69293212890625 427.89997558593745 99.59293212890623 441.4999755859376 99.59293212890623ZM441.4999755859376 89.59293212890623C422.29997558593755 89.59293212890623 406.79997558593755 106.19293212890625 406.79997558593755 126.69293212890625C406.79997558593755 147.19293212890625 422.29997558593755 163.79293212890627 441.4999755859376 163.79293212890627C460.6999755859374 163.79293212890627 476.1999755859374 147.19293212890625 476.1999755859374 126.69293212890625C476.1999755859374 106.19293212890625 460.6999755859374 89.59293212890623 441.4999755859376 89.59293212890623Z " fill="#bce2deff" opacity="1" stroke="none"></path><path data-ds-id="ds-391" d="M72.40097558593754 295.9929321289062C71.29997558593755 295.9929321289062 70.23097558593747 296.3629321289063 69.37197558593755 297.05293212890615C68.51397558593749 297.7429321289062 67.91797558593748 298.71293212890623 67.68497558593754 299.78293212890617C67.4509755859375 300.8629321289063 67.59297558593755 301.9829321289062 68.08697558593747 302.9729321289062C68.5809755859375 303.95293212890624 69.3979755859375 304.7429321289062 70.40097558593754 305.19293212890625L109.00097558593745 323.19293212890625C114.35297558593754 325.67293212890627 119.94997558593752 327.58293212890635 125.7009755859375 328.8929321289063 " stroke="#1b1d1dff" stroke-width="11" stroke-linecap="round" stroke-linejoin="round" opacity="1" fill="none"></path><path data-ds-id="ds-392" d="M356.1999755859374 215.9929321289062L345.79997558593755 238.19293212890625C343.77997558593756 242.56293212890614 343.1199755859375 247.44293212890625 343.89997558593745 252.19293212890625L356.9999755859376 331.4929321289062C359.4299755859374 346.2729321289062 360.66997558593744 361.2229321289062 360.6999755859374 376.19293212890625V420.79293212890616C360.6799755859374 426.6129321289063 361.3199755859375 432.4129321289063 362.5999755859375 438.09293212890634L370.89997558593745 475.19293212890625L422.89997558593745 346.19293212890625L356.1999755859374 215.9929321289062Z " fill="#272b2bff" opacity="1" stroke="none"></path><path data-ds-id="ds-393" d="M442.39997558593745 189.3919321289062C413.6999755859374 189.3919321289062 383.9999755859376 193.7919321289063 364.4999755859376 197.3919321289062C361.6199755859375 197.92793212890626 358.8699755859375 199.04493212890623 356.4299755859374 200.67493212890622C353.9899755859376 202.30493212890622 351.90997558593745 204.41393212890625 350.30997558593754 206.8739321289063C348.7099755859374 209.33293212890624 347.6299755859375 212.09293212890623 347.1299755859375 214.9829321289062C346.6299755859375 217.8729321289062 346.7199755859374 220.84293212890623 347.39997558593745 223.69293212890625L375.1999755859374 327.9929321289062C382.7599755859376 356.4029321289063 383.3399755859375 386.21293212890623 376.89997558593745 414.8929321289063L347.5999755859375 545.0929321289063C346.14997558593745 551.4429321289062 342.3399755859375 557.0129321289062 336.9299755859374 560.6529321289063C331.52997558593756 564.2929321289062 324.9299755859374 565.7429321289062 318.4999755859376 564.6929321289062L165.49997558593748 539.2929321289062C165.50997558593747 542.3129321289061 166.16997558593755 545.2929321289062 167.42997558593754 548.0329321289062C168.68997558593753 550.7729321289062 170.51997558593746 553.2129321289062 172.79997558593755 555.1929321289062L204.79997558593755 582.6929321289062C285.9799755859376 591.3729321289063 367.55997558593754 595.7129321289062 449.1999755859374 595.6929321289062H499.89997558593745C503.9699755859374 595.6929321289062 507.9299755859374 594.4029321289063 511.2099755859374 591.9829321289062C514.4799755859376 589.5729321289064 516.8999755859375 586.1729321289063 518.0999755859375 582.2929321289062C538.2999755859375 517.0929321289063 565.2999755859375 441.4929321289062 575.5999755859375 385.4929321289062C577.1899755859374 376.60293212890633 576.4999755859376 367.44293212890625 573.5999755859375 358.8929321289063C561.4999755859376 323.3929321289063 544.8999755859375 273.69293212890625 504.4999755859376 206.99193212890623C502.2199755859374 203.2669321289062 498.8699755859375 200.30793212890626 494.89997558593745 198.49193212890623C486.4999755859376 194.69193212890627 469.79997558593755 189.3919321289062 442.39997558593745 189.3919321289062Z " fill="#e26433ff" opacity="1" stroke="none"></path><path data-ds-id="ds-394" d="M496.89997558593745 282.59293212890634L490.89997558593745 207.19293212890625 " stroke="#fdcfbeff" stroke-width="6" stroke-linecap="round" opacity="1" fill="none"></path><path data-ds-id="ds-395" d="M497.4999755859376 199.8929321289063L505.39997558593745 298.9929321289062C506.4999755859376 312.29293212890616 497.89997558593745 322.29293212890616 485.29997558593755 322.29293212890616C472.6999755859374 322.29293212890616 459.89997558593745 312.3929321289063 455.29997558593755 298.9929321289062L417.6999755859374 190.29293212890627 " stroke="#933510ff" stroke-width="4" stroke-linecap="round" stroke-linejoin="round" opacity="0.4" fill="none"></path><path data-ds-id="ds-396" d="M499.6999755859374 595.6929321289062C503.7699755859376 595.7229321289062 507.7399755859376 594.4229321289063 511.0199755859376 592.0129321289062C514.2999755859375 589.6029321289063 516.7099755859374 586.1929321289062 517.8999755859375 582.2929321289062C538.0999755859375 517.0929321289063 565.0999755859375 441.4929321289062 575.3999755859375 385.4929321289062C575.7799755859376 383.54293212890616 576.0199755859376 381.57293212890636 576.0999755859375 379.59293212890634V379.59293212890634C573.8399755859375 383.71293212890623 570.5099755859376 387.1529321289063 566.4699755859374 389.55293212890615C562.4199755859374 391.94293212890625 557.7999755859375 393.20293212890624 553.0999755859375 393.19293212890625H473.9999755859376C447.5999755859375 393.17293212890627 421.30997558593754 389.9129321289063 395.6999755859374 383.4929321289062L381.0999755859375 379.79293212890616C380.77997558593756 391.6429321289063 379.30997558593754 403.43293212890626 376.6999755859374 414.9929321289062L347.39997558593745 545.1929321289062C345.9499755859374 551.5529321289061 342.13997558593746 557.1129321289063 336.7299755859376 560.7529321289062C331.3199755859375 564.3929321289063 324.7299755859376 565.8429321289063 318.29997558593755 564.7929321289062L165.29997558593755 539.3929321289063V542.5929321289063C165.30997558593754 544.6229321289063 165.74997558593748 546.6329321289063 166.5899755859375 548.4729321289062C167.43997558593753 550.3229321289064 168.66997558593755 551.9629321289062 170.19997558593752 553.2929321289062L204.5999755859375 582.8929321289063C285.77997558593756 591.5729321289064 367.3599755859375 595.9129321289063 448.9999755859376 595.8929321289063L499.6999755859374 595.6929321289062Z " fill="#c25024ff" opacity="1" stroke="none"></path><path data-ds-id="ds-397" d="M232.9999755859376 585.4929321289062C280.1999755859374 589.8929321289063 327.4999755859376 592.8929321289063 374.89997558593745 594.4929321289062 " stroke="#933510ff" stroke-width="4" stroke-linecap="round" stroke-linejoin="round" opacity="0.4" fill="none"></path><path data-ds-id="ds-398" d="M511.5999755859375 240.9929321289062C523.8999755859375 263.4929321289062 533.2999755859375 283.79293212890616 540.9999755859376 301.8929321289063 " stroke="#fdcfbeff" stroke-width="6" stroke-linecap="round" opacity="1" fill="none"></path><path data-ds-id="ds-399" d="M504.39997558593745 206.8929321289063C502.1199755859375 203.16793212890627 498.7699755859376 200.2089321289062 494.79997558593755 198.3929321289063C486.4999755859376 194.69293212890625 469.79997558593755 189.29293212890627 442.29997558593755 189.29293212890627C413.5999755859375 189.29293212890627 383.89997558593745 193.69293212890625 364.39997558593745 197.29293212890627C361.5199755859376 197.82793212890624 358.7699755859376 198.9449321289062 356.3299755859375 200.5749321289062C353.88997558593746 202.2049321289062 351.80997558593754 204.31393212890623 350.2099755859374 206.77393212890627C348.6099755859375 209.2329321289062 347.52997558593756 211.9929321289062 347.02997558593756 214.8829321289063C346.52997558593756 217.7729321289063 346.6199755859375 220.7429321289062 347.29997558593755 223.59293212890623L375.0999755859375 327.8929321289063C382.65997558593745 356.30293212890615 383.2399755859376 386.1129321289063 376.79997558593755 414.79293212890616L347.4999755859376 544.9929321289062C346.04997558593755 551.3529321289063 342.2399755859376 556.9129321289063 336.8299755859375 560.5529321289061C331.4299755859374 564.1929321289062 324.8299755859375 565.6429321289063 318.39997558593745 564.5929321289063L232.1999755859374 550.2929321289062 " stroke="#bce2deff" stroke-width="8" stroke-linecap="round" stroke-linejoin="round" opacity="1" fill="none"></path><path data-ds-id="ds-400" d="M485.5999755859375 564.3929321289063C462.4599755859374 567.6329321289063 439.0099755859376 567.9329321289063 415.79997558593755 565.2929321289062C411.4699755859374 564.8229321289064 407.28997558593755 563.4529321289062 403.5199755859376 561.2529321289062C399.7599755859376 559.0629321289061 396.4999755859376 556.1029321289063 393.9599755859374 552.5629321289061C391.41997558593744 549.0229321289062 389.65997558593745 544.9829321289062 388.78997558593755 540.7129321289062C387.91997558593744 536.4529321289062 387.9499755859374 532.0429321289062 388.89997558593745 527.7929321289062L405.1999755859374 455.4929321289062C408.64997558593745 440.1429321289063 417.2299755859376 426.42293212890627 429.5199755859376 416.59293212890634C441.79997558593755 406.7629321289062 457.05997558593754 401.4029321289063 472.79997558593755 401.3929321289063H524.1999755859374C527.5699755859375 401.3929321289063 530.8899755859375 402.1629321289063 533.9099755859374 403.6629321289063C536.9299755859374 405.1529321289063 539.5599755859375 407.33293212890635 541.5899755859375 410.0129321289062C543.6299755859375 412.70293212890624 545.0099755859376 415.82293212890636 545.6399755859375 419.1329321289063C546.2599755859376 422.44293212890625 546.1099755859375 425.85293212890633 545.1999755859374 429.09293212890634L513.8999755859375 539.3929321289063C512.1399755859375 545.8729321289063 508.52997558593756 551.6929321289062 503.4999755859376 556.1329321289063C498.4699755859374 560.5729321289064 492.2399755859376 563.4429321289062 485.5999755859375 564.3929321289063V564.3929321289063Z " fill="#1c1c1cff" opacity="1" stroke="none"></path><path data-ds-id="ds-402" d="M524.2999755859375 408.4929321289062C526.5799755859375 408.4929321289062 528.8299755859375 409.0229321289062 530.8799755859375 410.04293212890616C532.9199755859374 411.06293212890614 534.6999755859374 412.54293212890616 536.0799755859375 414.3629321289063C537.4499755859374 416.18293212890626 538.3899755859375 418.30293212890615 538.8099755859375 420.54293212890616C539.2299755859376 422.78293212890617 539.1199755859375 425.09293212890634 538.4999755859376 427.29293212890616L507.1999755859374 537.5929321289063C505.7299755859376 542.7429321289062 502.79997558593755 547.3529321289063 498.77997558593756 550.8829321289063C494.7499755859376 554.4129321289063 489.79997558593755 556.7029321289062 484.4999755859376 557.4929321289062C472.2399755859376 559.2329321289062 459.8799755859375 560.1029321289063 447.4999755859376 560.0929321289063C437.13997558593746 560.0729321289064 426.79997558593755 559.5029321289062 416.4999755859376 558.3929321289063C413.14997558593745 558.0229321289062 409.91997558593744 556.9629321289062 407.0199755859376 555.2629321289062C404.1099755859375 553.5629321289061 401.5899755859375 551.2729321289062 399.6299755859375 548.5329321289062C397.66997558593744 545.8029321289061 396.29997558593755 542.6829321289063 395.6299755859375 539.3829321289063C394.9499755859374 536.0829321289064 394.9699755859374 532.6829321289063 395.6999755859374 529.3929321289063L411.9999755859376 457.09293212890634C415.0999755859375 443.29293212890616 422.8199755859375 430.95293212890624 433.8699755859375 422.1229321289063C444.91997558593744 413.28293212890617 458.64997558593745 408.4829321289062 472.79997558593755 408.4929321289062H524.2999755859375V408.4929321289062ZM524.2999755859375 401.4929321289062H472.89997558593745C457.16997558593744 401.5029321289062 441.89997558593745 406.8629321289063 429.6199755859375 416.69293212890625C417.3299755859375 426.5229321289062 408.7599755859376 440.2429321289062 405.29997558593755 455.59293212890634L388.9999755859376 527.8929321289063C388.03997558593755 532.1429321289063 387.9999755859376 536.5529321289061 388.8699755859375 540.8229321289064C389.7299755859376 545.0929321289063 391.4999755859376 549.1329321289063 394.03997558593755 552.6829321289063C396.5799755859375 556.2229321289062 399.8399755859375 559.1829321289063 403.6099755859375 561.3729321289063C407.3799755859375 563.5629321289061 411.5699755859375 564.9329321289063 415.89997558593745 565.3929321289063C426.4599755859374 566.5129321289062 437.0799755859375 567.0829321289064 447.6999755859374 567.0929321289063C460.41997558593744 567.1429321289063 473.1199755859375 566.2329321289062 485.6999755859374 564.3929321289063C492.3399755859375 563.4429321289062 498.54997558593755 560.5829321289064 503.5999755859375 556.1629321289063C508.63997558593746 551.7429321289062 512.2899755859376 545.9529321289062 514.0999755859375 539.4929321289062L545.3999755859375 429.19293212890625C546.2899755859376 425.94293212890625 546.4199755859374 422.53293212890617 545.7799755859376 419.2229321289062C545.1399755859375 415.9129321289063 543.7499755859376 412.80293212890615 541.7099755859374 410.1229321289063C539.6599755859374 407.44293212890625 537.0299755859376 405.2729321289062 534.0099755859376 403.7729321289062C530.9899755859376 402.2729321289062 527.6699755859374 401.4929321289062 524.2999755859375 401.4929321289062V401.4929321289062Z " fill="#933510ff" opacity="0.4" stroke="none"></path><path data-ds-id="ds-403" d="M582.1999755859374 444.59293212890634C564.9999755859376 438.4929321289062 547.4999755859376 434.09293212890634 529.7999755859375 429.3929321289063C528.2999755859375 430.9929321289062 526.7999755859375 432.69293212890625 525.3999755859375 434.3929321289063C520.5299755859376 440.7529321289062 517.0899755859375 448.08293212890635 515.2999755859375 455.8929321289063L490.4999755859376 438.79293212890616L427.1999755859374 469.19293212890625L410.29997558593755 544.2929321289062C410.1799755859374 544.8329321289064 410.1799755859374 545.3929321289063 410.29997558593755 545.9329321289063C410.4299755859374 546.4729321289062 410.66997558593744 546.9729321289062 411.0199755859376 547.4129321289063C411.3599755859375 547.8429321289063 411.79997558593755 548.1929321289062 412.29997558593755 548.4329321289063C412.79997558593755 548.6729321289063 413.3499755859375 548.7929321289062 413.89997558593745 548.7929321289062H494.4999755859376L498.6999755859374 546.4929321289062C506.80997558593754 542.0429321289062 513.4299755859374 535.2929321289062 517.6999755859374 527.0929321289063L523.4999755859376 515.7929321289062C529.3399755859375 504.46293212890623 538.1899755859374 494.96293212890623 549.0699755859375 488.32293212890636C559.9499755859374 481.69293212890625 572.4499755859374 478.18293212890626 585.1999755859374 478.19293212890625H588.8999755859375C587.6599755859374 466.81293212890614 585.4199755859374 455.57293212890636 582.1999755859374 444.59293212890634Z " fill="#272b2bff" opacity="1" stroke="none"></path><path data-ds-id="ds-404" d="M457.5999755859375 581.1929321289062C457.5999755859375 637.7929321289062 495.39997558593745 687.2929321289062 550.7999755859375 652.6929321289062C527.4999755859376 652.6929321289062 508.5999755859375 620.6929321289062 508.5999755859375 581.1929321289062C508.5999755859375 541.6929321289062 527.4999755859376 509.69293212890625 550.7999755859375 509.69293212890625C511.1999755859374 469.4929321289062 457.5999755859375 512.1929321289062 457.5999755859375 581.1929321289062Z " fill="#1b1d1dff" opacity="1" stroke="none"></path><path data-ds-id="ds-405" d="M457.5999755859375 581.1929321289062C457.5999755859375 637.7929321289062 495.39997558593745 687.2929321289062 550.7999755859375 652.6929321289062C527.4999755859376 652.6929321289062 508.5999755859375 620.6929321289062 508.5999755859375 581.1929321289062C508.5999755859375 541.6929321289062 527.4999755859376 509.69293212890625 550.7999755859375 509.69293212890625C511.1999755859374 469.4929321289062 457.5999755859375 512.1929321289062 457.5999755859375 581.1929321289062Z " stroke="#708986ff" stroke-width="7" stroke-linecap="round" stroke-linejoin="round" opacity="1" fill="none"></path><path data-ds-id="ds-406" d="M550.7999755859375 630.1929321289062C566.8199755859375 630.1929321289062 579.7999755859375 608.2529321289062 579.7999755859375 581.1929321289062C579.7999755859375 554.1329321289063 566.8199755859375 532.1929321289062 550.7999755859375 532.1929321289062C534.7799755859376 532.1929321289062 521.7999755859375 554.1329321289063 521.7999755859375 581.1929321289062C521.7999755859375 608.2529321289062 534.7799755859376 630.1929321289062 550.7999755859375 630.1929321289062Z " fill="#404a49ff" opacity="1" stroke="none"></path><path data-ds-id="ds-407" d="M550.7999755859375 606.9929321289062C559.1899755859374 606.9929321289062 565.9999755859376 595.4429321289062 565.9999755859376 581.1929321289062C565.9999755859376 566.9429321289062 559.1899755859374 555.3929321289063 550.7999755859375 555.3929321289063C542.4099755859374 555.3929321289063 535.5999755859375 566.9429321289062 535.5999755859375 581.1929321289062C535.5999755859375 595.4429321289062 542.4099755859374 606.9929321289062 550.7999755859375 606.9929321289062Z " stroke="#272b2bff" stroke-width="4" stroke-linecap="round" stroke-linejoin="round" opacity="1" fill="none"></path><path data-ds-id="ds-408" d="M550.7999755859375 563.1929321289062H518.9999755859376C518.7999755859375 563.1729321289063 518.5899755859375 563.2129321289062 518.3999755859375 563.2929321289062C512.7999755859375 563.7929321289062 508.39997558593745 571.6929321289062 508.39997558593745 581.2929321289062C508.39997558593745 590.8929321289063 512.7999755859375 598.6929321289062 518.3999755859375 599.2929321289062H550.7999755859375C556.6999755859374 599.2929321289062 561.3999755859375 591.1929321289062 561.3999755859375 581.2929321289062C561.4999755859376 571.1929321289062 556.6999755859374 563.1929321289062 550.7999755859375 563.1929321289062Z " fill="#272b2bff" opacity="1" stroke="none"></path><path data-ds-id="ds-409" d="M561.0999755859375 464.4929321289062C544.0599755859375 461.19293212890625 526.5399755859376 461.19293212890625 509.4999755859376 464.4929321289062C475.0999755859375 471.19293212890625 448.4999755859376 521.0929321289063 448.4999755859376 581.1929321289062C448.4999755859376 641.2929321289062 475.0999755859375 691.1929321289062 509.4999755859376 697.8929321289063C526.5399755859376 701.1929321289062 544.0599755859375 701.1929321289062 561.0999755859375 697.8929321289063C595.5999755859375 691.1929321289062 622.0999755859375 641.2929321289062 622.0999755859375 581.1929321289062C622.0999755859375 521.0929321289063 595.5999755859375 471.19293212890625 561.0999755859375 464.4929321289062ZM524.3999755859375 652.6929321289062C501.0999755859375 652.6929321289062 482.1999755859374 620.6929321289062 482.1999755859374 581.1929321289062C482.1999755859374 541.6929321289062 501.0999755859375 509.69293212890625 524.3999755859375 509.69293212890625C547.6999755859374 509.69293212890625 566.5999755859375 541.6929321289062 566.5999755859375 581.1929321289062C566.5999755859375 620.6929321289062 547.6999755859374 652.6929321289062 524.3999755859375 652.6929321289062Z " fill="#323a3aff" opacity="1" stroke="none"></path><path data-ds-id="ds-410" d="M518.9999755859376 613.4929321289062C529.5499755859375 613.4929321289062 538.0999755859375 599.0329321289062 538.0999755859375 581.1929321289062C538.0999755859375 563.3529321289063 529.5499755859375 548.8929321289063 518.9999755859376 548.8929321289063C508.4499755859374 548.8929321289063 499.89997558593745 563.3529321289063 499.89997558593745 581.1929321289062C499.89997558593745 599.0329321289062 508.4499755859374 613.4929321289062 518.9999755859376 613.4929321289062Z " fill="#708986ff" opacity="1" stroke="none"></path><path data-ds-id="ds-411" d="M518.9999755859376 596.6929321289062C524.0299755859376 596.6929321289062 528.0999755859375 589.7529321289062 528.0999755859375 581.1929321289062C528.0999755859375 572.6329321289063 524.0299755859376 565.6929321289062 518.9999755859376 565.6929321289062C513.9699755859374 565.6929321289062 509.89997558593745 572.6329321289063 509.89997558593745 581.1929321289062C509.89997558593745 589.7529321289062 513.9699755859374 596.6929321289062 518.9999755859376 596.6929321289062Z " stroke="#404a49ff" stroke-width="7" stroke-linecap="round" stroke-linejoin="round" opacity="1" fill="none"></path><path data-ds-id="ds-412" d="M511.1999755859374 475.09293212890634C476.5999755859375 475.09293212890634 448.4999755859376 522.5929321289063 448.4999755859376 581.1929321289062C448.4999755859376 639.7929321289062 476.5999755859375 687.2929321289062 511.1999755859374 687.2929321289062C545.7999755859375 687.2929321289062 573.8999755859375 639.7929321289062 573.8999755859375 581.1929321289062C573.8999755859375 522.5929321289063 545.7999755859375 475.09293212890634 511.1999755859374 475.09293212890634ZM524.3999755859375 652.6929321289062C501.0999755859375 652.6929321289062 482.1999755859374 620.6929321289062 482.1999755859374 581.1929321289062C482.1999755859374 541.6929321289062 501.0999755859375 509.69293212890625 524.3999755859375 509.69293212890625C547.6999755859374 509.69293212890625 566.5999755859375 541.6929321289062 566.5999755859375 581.1929321289062C566.5999755859375 620.6929321289062 547.6999755859374 652.6929321289062 524.3999755859375 652.6929321289062V652.6929321289062Z " fill="#272b2bff" opacity="1" stroke="none"></path><path data-ds-id="ds-413" d="M524.3999755859375 652.6929321289062C547.7099755859374 652.6929321289062 566.5999755859375 620.6829321289063 566.5999755859375 581.1929321289062C566.5999755859375 541.7029321289062 547.7099755859374 509.69293212890625 524.3999755859375 509.69293212890625C501.0899755859375 509.69293212890625 482.1999755859374 541.7029321289062 482.1999755859374 581.1929321289062C482.1999755859374 620.6829321289063 501.0899755859375 652.6929321289062 524.3999755859375 652.6929321289062Z " stroke="#708986ff" stroke-width="7" stroke-linecap="round" stroke-linejoin="round" opacity="1" fill="none"></path><path data-ds-id="ds-414" d="M613.0999755859375 459.8929321289063C594.6999755859374 427.79293212890616 561.0999755859375 407.09293212890634 524.0999755859375 406.29293212890616H513.7999755859375C495.0799755859375 406.2729321289062 476.5999755859375 410.44293212890625 459.6999755859374 418.4929321289062C452.02997558593756 422.21293212890623 445.3499755859375 427.69293212890625 440.1999755859374 434.4929321289062C435.3299755859375 440.85293212890633 431.88997558593746 448.18293212890626 430.0999755859375 455.9929321289062L410.1999755859374 544.1929321289062C410.1099755859375 544.5929321289063 410.1299755859375 545.0129321289062 410.2699755859376 545.4029321289063C410.39997558593745 545.7929321289062 410.64997558593745 546.1329321289063 410.9799755859376 546.3929321289063C411.30997558593754 546.6429321289063 411.6999755859374 546.7929321289062 412.1099755859375 546.8329321289064C412.5199755859376 546.8629321289063 412.9299755859374 546.7829321289062 413.29997558593755 546.5929321289063V546.5929321289063C421.40997558593745 542.1529321289063 428.02997558593756 535.3929321289063 432.29997558593755 527.1929321289062L438.0999755859375 515.8929321289063C443.9399755859374 504.56293212890614 452.77997558593756 495.06293212890614 463.66997558593744 488.42293212890627C474.54997558593755 481.79293212890616 487.04997558593755 478.28293212890617 499.79997558593755 478.29293212890616H611.7999755859375C612.8999755859375 478.30293212890615 613.9899755859376 478.0229321289062 614.9499755859374 477.4929321289062C615.9199755859374 476.9729321289062 616.7299755859376 476.20293212890624 617.3199755859375 475.2729321289062C617.9099755859374 474.34293212890634 618.2599755859376 473.28293212890617 618.3199755859375 472.18293212890626C618.3899755859375 471.08293212890635 618.1699755859374 469.9829321289062 617.6999755859374 468.9929321289062C616.3499755859375 465.8729321289063 614.8099755859375 462.83293212890635 613.0999755859375 459.8929321289063V459.8929321289063Z " fill="#e26433ff" opacity="1" stroke="none"></path><path data-ds-id="ds-415" d="M440.29997558593755 434.4929321289062C435.40997558593745 440.8829321289063 431.9699755859374 448.2529321289062 430.1999755859374 456.09293212890634L410.29997558593755 544.2929321289062C410.2099755859374 544.6929321289062 410.2299755859376 545.1129321289063 410.3699755859375 545.5029321289062C410.5099755859376 545.8929321289063 410.7499755859376 546.2329321289062 411.0799755859375 546.4929321289062C411.40997558593745 546.7429321289062 411.79997558593755 546.8929321289063 412.2099755859374 546.9329321289063C412.6199755859375 546.9729321289062 413.02997558593756 546.8829321289063 413.39997558593745 546.6929321289062C421.5099755859376 542.2529321289062 428.1299755859375 535.5029321289062 432.39997558593745 527.2929321289062L438.1999755859374 515.9929321289062C444.03997558593755 504.6629321289063 452.88997558593746 495.1629321289063 463.7699755859376 488.5229321289062C474.64997558593745 481.8929321289063 487.14997558593745 478.3929321289063 499.89997558593745 478.3929321289063H540.3999755859375C516.2999755859375 429.09293212890634 465.79997558593755 416.3929321289063 440.29997558593755 434.4929321289062Z " fill="#c25024ff" opacity="1" stroke="none"></path><path data-ds-id="ds-416" d="M563.0999755859375 437.3929321289063C560.9499755859374 436.3829321289063 558.8799755859375 435.21293212890623 556.8999755859375 433.8929321289063C555.8999755859375 433.29293212890616 554.8999755859375 432.69293212890625 553.8999755859375 432.09293212890634L550.9999755859376 430.19293212890625C549.0999755859375 428.8929321289063 547.0999755859375 427.69293212890625 545.1999755859374 426.3929321289063C543.2999755859375 425.09293212890634 541.2999755859375 423.79293212890616 539.3999755859375 422.29293212890616C539.0799755859375 422.05293212890615 538.8199755859375 421.7529321289062 538.6199755859375 421.4129321289063C538.4199755859374 421.07293212890636 538.2999755859375 420.69293212890625 538.2499755859376 420.30293212890615C538.1999755859374 419.9029321289063 538.2399755859376 419.5129321289062 538.3499755859375 419.1329321289063C538.4599755859374 418.7529321289062 538.6499755859375 418.3929321289063 538.8999755859375 418.09293212890634C539.1299755859375 417.7629321289062 539.4199755859374 417.5029321289062 539.7699755859376 417.31293212890614C540.1199755859375 417.1129321289063 540.4999755859376 417.0129321289062 540.8999755859375 416.9929321289062L541.7999755859375 416.8929321289063C544.5299755859376 416.6429321289063 547.2699755859376 416.9129321289063 549.8999755859375 417.69293212890625C552.3899755859375 418.45293212890624 554.7799755859376 419.5229321289062 556.9999755859376 420.8929321289063C559.2199755859374 422.2729321289062 561.2399755859376 423.95293212890624 562.9999755859376 425.8929321289063C564.8299755859375 427.92293212890627 566.2199755859374 430.30293212890615 567.0999755859375 432.8929321289063L567.3999755859375 433.79293212890616C567.6399755859375 434.56293212890614 567.5599755859375 435.3929321289063 567.1899755859374 436.10293212890633C566.8099755859375 436.82293212890636 566.1699755859374 437.35293212890633 565.3999755859375 437.59293212890634C564.6299755859375 437.79293212890616 563.8199755859375 437.7229321289062 563.0999755859375 437.3929321289063V437.3929321289063Z " fill="#bce2deff" opacity="1" stroke="none"></path><path data-ds-id="ds-417" d="M543.1999755859374 461.9929321289062C529.9999755859376 442.79293212890616 511.9999755859376 428.29293212890616 493.89997558593745 421.79293212890616 " stroke="#933510ff" stroke-width="4" stroke-linecap="round" stroke-linejoin="round" opacity="0.4" fill="none"></path><path data-ds-id="ds-418" d="M396.29997558593755 341.3929321289063L383.39997558593745 295.09293212890634C383.15997558593745 294.21293212890623 383.16997558593744 293.2729321289062 383.40997558593745 292.3929321289063C383.65997558593745 291.5129321289062 384.14997558593745 290.71293212890623 384.8199755859375 290.09293212890634C385.4899755859376 289.46293212890623 386.30997558593754 289.03293212890617 387.2099755859374 288.83293212890635C388.0999755859375 288.6429321289063 389.02997558593756 288.69293212890625 389.89997558593745 288.9929321289062L400.6999755859374 292.79293212890616C403.7599755859376 293.84293212890634 406.5799755859375 295.4829321289062 408.9999755859376 297.6329321289063C411.41997558593744 299.7729321289062 413.38997558593746 302.3829321289063 414.79997558593755 305.29293212890616L441.0999755859375 359.3929321289063C441.4799755859376 360.1529321289063 441.63997558593746 361.0129321289062 441.54997558593755 361.8629321289063C441.4499755859374 362.71293212890623 441.1199755859375 363.5229321289062 440.5799755859375 364.18293212890626C440.03997558593755 364.85293212890633 439.3199755859375 365.34293212890634 438.5099755859376 365.6129321289063C437.6999755859374 365.8829321289063 436.8299755859375 365.9129321289063 435.9999755859376 365.69293212890625L416.0999755859375 360.69293212890625C411.39997558593745 359.4829321289062 407.0999755859375 357.07293212890636 403.6299755859375 353.68293212890626C400.14997558593745 350.29293212890616 397.6299755859375 346.06293212890614 396.29997558593755 341.3929321289063V341.3929321289063Z " fill="#708986ff" opacity="1" stroke="none"></path><path data-ds-id="ds-419" d="M396.29997558593755 341.3929321289063L383.39997558593745 295.09293212890634C383.15997558593745 294.21293212890623 383.16997558593744 293.2729321289062 383.40997558593745 292.3929321289063C383.65997558593745 291.5129321289062 384.14997558593745 290.71293212890623 384.8199755859375 290.09293212890634C385.4899755859376 289.46293212890623 386.30997558593754 289.03293212890617 387.2099755859374 288.83293212890635C388.0999755859375 288.6429321289063 389.02997558593756 288.69293212890625 389.89997558593745 288.9929321289062L400.6999755859374 292.79293212890616C403.7599755859376 293.84293212890634 406.5799755859375 295.4829321289062 408.9999755859376 297.6329321289063C411.41997558593744 299.7729321289062 413.38997558593746 302.3829321289063 414.79997558593755 305.29293212890616L441.0999755859375 359.3929321289063C441.4799755859376 360.1529321289063 441.63997558593746 361.0129321289062 441.54997558593755 361.8629321289063C441.4499755859374 362.71293212890623 441.1199755859375 363.5229321289062 440.5799755859375 364.18293212890626C440.03997558593755 364.85293212890633 439.3199755859375 365.34293212890634 438.5099755859376 365.6129321289063C437.6999755859374 365.8829321289063 436.8299755859375 365.9129321289063 435.9999755859376 365.69293212890625L416.0999755859375 360.69293212890625C411.39997558593745 359.4829321289062 407.0999755859375 357.07293212890636 403.6299755859375 353.68293212890626C400.14997558593745 350.29293212890616 397.6299755859375 346.06293212890614 396.29997558593755 341.3929321289063V341.3929321289063Z " stroke="#bce2deff" stroke-width="6" stroke-linecap="round" stroke-linejoin="round" opacity="1" fill="none"></path><path data-ds-id="ds-420" d="M560.4999755859376 363.4929321289062C561.3999755859375 366.4929321289062 565.1999755859374 366.4929321289062 566.7999755859375 363.4929321289062L571.9999755859376 354.09293212890634C566.3999755859375 337.69293212890625 559.7999755859375 318.4929321289062 550.3999755859375 296.29293212890616L548.3999755859375 300.59293212890634C546.0199755859376 305.6129321289063 545.5199755859376 311.33293212890635 546.9999755859376 316.69293212890625L560.4999755859376 363.4929321289062Z " fill="#708986ff" opacity="1" stroke="none"></path><path data-ds-id="ds-421" d="M550.2999755859375 296.29293212890616L548.2999755859375 300.59293212890634C545.9199755859374 305.6129321289063 545.4199755859374 311.33293212890635 546.8999755859375 316.69293212890625L560.3999755859375 363.4929321289062C561.2999755859375 366.4929321289062 565.0999755859375 366.4929321289062 566.6999755859374 363.4929321289062L571.8999755859375 354.09293212890634 " stroke="#bce2deff" stroke-width="6" stroke-linecap="round" stroke-linejoin="round" opacity="1" fill="none"></path><path data-ds-id="ds-422" d="M492.5699755859375 309.96293212890623C498.3199755859375 305.2229321289062 498.13997558593746 295.5029321289062 492.16997558593744 288.2629321289062C486.1899755859374 281.0229321289062 476.6799755859374 278.9929321289062 470.9299755859374 283.7429321289062C465.1799755859374 288.4829321289062 465.3599755859375 298.20293212890624 471.3399755859375 305.44293212890625C477.30997558593754 312.68293212890626 486.8199755859375 314.71293212890623 492.5699755859375 309.96293212890623Z " fill="#323a3aff" opacity="1" stroke="none"></path></svg>